<?xml version="1.0" standalone="no"?>
<!DOCTYPE svg PUBLIC "-//W3C//DTD SVG 20010904//EN"
 "http://www.w3.org/TR/2001/REC-SVG-20010904/DTD/svg10.dtd">
<svg version="1.0" xmlns="http://www.w3.org/2000/svg"
 width="1372.000000pt" height="1024.000000pt" viewBox="0 0 1372.000000 1024.000000"
 preserveAspectRatio="xMidYMid meet">

<g transform="translate(0.000000,1024.000000) scale(0.100000,-0.100000)"
fill="#000000" stroke="none">
<path d="M8180 10229 c-25 -4 -105 -13 -178 -19 -111 -8 -147 -16 -220 -44
-48 -18 -187 -57 -310 -87 l-223 -53 6 -28 c6 -24 3 -28 -14 -28 -12 0 -21 4
-21 9 0 19 -43 23 -101 11 -46 -10 -59 -17 -59 -31 0 -14 -7 -19 -25 -19 -17
0 -36 -12 -55 -34 -61 -69 -216 -119 -370 -120 -118 -1 -149 11 -172 64 -12
30 -22 40 -40 40 -13 0 -81 -29 -153 -65 -184 -92 -404 -143 -572 -132 -66 4
-86 2 -90 -9 -7 -19 -43 1 -122 67 -66 55 -94 60 -45 7 28 -30 26 -31 -21 -12
-10 4 -15 0 -15 -14 0 -25 -48 -66 -96 -82 -20 -7 -67 -10 -105 -8 -73 4 -81
-1 -58 -44 6 -11 8 -22 6 -25 -7 -6 -209 44 -253 62 -17 7 -60 39 -96 71 l-64
59 -125 3 c-68 2 -171 5 -229 6 l-106 1 -47 -40 c-25 -22 -46 -47 -47 -55 0
-8 -23 -62 -50 -120 -28 -58 -50 -118 -50 -135 0 -18 14 -49 35 -79 41 -58 44
-74 10 -52 l-25 16 17 -36 c17 -35 17 -36 -2 -50 -22 -16 -55 -19 -55 -4 0 19
-28 -2 -35 -27 -8 -33 8 -50 59 -64 38 -10 55 -23 56 -41 0 -5 -6 -8 -14 -8
-22 0 -31 -20 -32 -70 -1 -25 -11 -71 -23 -102 -11 -32 -21 -76 -21 -99 0 -31
-8 -51 -30 -79 -39 -50 -102 -184 -131 -280 -12 -41 -39 -101 -61 -132 -44
-66 -48 -100 -22 -204 14 -53 15 -75 5 -121 -6 -31 -11 -80 -11 -109 0 -50 2
-54 51 -96 46 -40 51 -49 56 -94 4 -44 21 -104 28 -104 2 0 31 13 66 30 l62
29 44 -31 c40 -29 42 -33 29 -52 -7 -12 -24 -21 -37 -21 -15 0 -29 -11 -42
-33 -19 -32 -19 -32 2 -32 12 0 21 -6 21 -15 0 -23 35 -18 68 10 17 14 35 25
41 25 14 0 14 -32 -1 -65 -23 -52 21 -45 101 15 29 22 58 40 65 40 6 0 32 -23
57 -52 l46 -52 34 20 c19 11 51 45 73 76 l39 57 36 -20 c20 -10 43 -19 53 -19
9 0 46 22 82 49 36 28 97 68 136 91 74 43 245 116 299 126 25 5 30 10 26 25
-5 14 -1 19 14 19 11 0 23 4 26 10 4 6 15 4 30 -6 23 -15 28 -13 117 40 100
59 142 72 344 109 126 24 234 60 234 79 0 5 -10 6 -22 2 -112 -35 -236 -66
-343 -84 -109 -18 -130 -20 -142 -8 -12 12 12 23 164 73 197 64 271 85 323 90
31 3 224 46 273 61 11 4 17 0 17 -10 0 -17 12 -19 47 -10 15 4 22 13 20 26 -2
18 17 26 163 69 91 27 169 49 174 49 4 0 6 -7 2 -15 -4 -11 2 -15 25 -15 38 0
81 22 108 56 12 15 28 24 39 22 10 -2 25 2 33 9 30 25 239 36 239 13 0 -4 -15
-14 -32 -21 l-33 -13 33 -3 c29 -4 31 -6 21 -26 -9 -16 -9 -22 0 -25 6 -2 11
-10 11 -18 0 -8 4 -14 10 -14 9 0 23 20 74 103 10 16 20 26 23 24 5 -6 -85
-167 -94 -167 -3 0 -3 7 1 15 4 11 -1 15 -18 15 -19 0 -28 -10 -45 -49 -11
-27 -21 -54 -21 -59 0 -5 -7 -15 -15 -22 -9 -7 -14 -18 -12 -24 2 -6 -7 -19
-20 -29 -25 -20 -31 -42 -9 -34 11 4 13 1 9 -10 -5 -12 -3 -14 7 -8 9 6 11 4
6 -4 -5 -7 -10 -10 -13 -7 -3 3 -16 -15 -29 -40 -24 -45 -33 -73 -14 -44 5 8
10 11 10 5 -1 -5 -7 -19 -15 -29 -8 -11 -15 -16 -15 -11 0 5 -12 -8 -26 -28
-14 -21 -23 -41 -21 -44 3 -3 13 10 23 29 10 19 19 28 22 20 6 -19 -39 -99
-64 -112 -11 -7 -40 -44 -62 -83 -23 -40 -74 -105 -114 -145 -126 -127 -104
-122 -181 -37 -37 40 -76 76 -87 80 -10 3 -33 -1 -49 -9 -34 -18 -55 -21 -46
-6 8 13 -11 13 -36 -1 -16 -8 -33 -3 -90 28 -39 21 -82 50 -94 66 -13 15 -31
27 -39 27 -9 0 -25 9 -35 19 -26 26 -49 37 -94 45 -20 4 -54 21 -75 39 l-37
32 38 -44 c28 -31 36 -46 28 -54 -8 -8 -20 -2 -44 21 -46 44 -102 45 -145 2
-20 -19 -41 -30 -59 -30 -16 0 -34 -5 -41 -12 -8 -8 -15 -8 -25 0 -19 16 -60
-16 -98 -77 -32 -49 -37 -92 -14 -111 12 -10 12 -14 0 -26 -7 -8 -18 -14 -24
-14 -6 0 -8 -7 -5 -15 4 -10 0 -15 -12 -15 -14 -1 -8 -10 25 -39 41 -35 43
-39 26 -49 -16 -8 -17 -13 -6 -26 11 -13 11 -19 1 -31 -7 -8 -19 -15 -26 -15
-8 0 -14 -3 -14 -7 0 -11 63 -60 94 -75 27 -12 33 -23 16 -33 -18 -11 -11 -41
15 -65 14 -13 25 -28 25 -34 0 -6 18 -24 40 -39 22 -16 40 -35 40 -42 0 -8 16
-26 35 -40 19 -15 37 -35 40 -45 3 -10 21 -24 39 -30 18 -6 46 -24 61 -40 17
-17 39 -30 53 -30 14 0 60 -18 104 -40 44 -22 89 -40 99 -40 10 0 29 -10 43
-23 l25 -23 -20 -55 c-18 -48 -26 -57 -57 -69 -20 -7 -133 -57 -250 -112 -117
-54 -254 -113 -305 -130 -106 -37 -181 -41 -340 -18 -173 24 -287 -9 -393
-115 -184 -183 -355 -556 -433 -946 -21 -105 -56 -378 -86 -674 -11 -104 -25
-186 -41 -234 -41 -125 -65 -266 -74 -445 -7 -134 -16 -199 -40 -301 -17 -71
-40 -171 -50 -222 -11 -51 -27 -109 -36 -130 -8 -21 -17 -51 -19 -68 -1 -16
-6 -52 -10 -80 -6 -46 -4 -56 31 -117 67 -120 103 -160 183 -202 42 -22 76
-46 78 -57 4 -14 14 -19 38 -19 26 0 40 -8 63 -35 l28 -35 110 -6 c103 -6 110
-5 128 15 13 14 31 21 56 21 29 0 44 8 75 40 42 43 68 50 84 23 9 -17 11 -16
30 1 11 10 27 16 36 13 14 -6 19 3 16 31 -1 6 4 12 12 12 7 0 26 14 43 31 37
39 87 66 92 50 2 -6 10 -11 18 -11 9 0 13 4 9 9 -6 11 74 90 93 91 6 0 12 4
12 9 0 5 21 16 47 25 52 18 107 21 98 6 -8 -13 4 -13 43 1 18 6 29 15 26 20
-3 5 4 9 15 9 11 0 23 4 26 10 3 5 20 14 38 20 30 9 30 10 -10 5 -34 -4 -43
-2 -43 9 0 9 17 20 43 27 23 7 51 19 62 26 11 7 29 13 40 13 11 0 27 5 35 10
11 8 8 9 -12 4 -16 -3 -28 -2 -28 2 0 5 33 19 73 30 39 12 80 25 90 29 10 4
17 3 17 -4 0 -6 -8 -11 -17 -11 -10 -1 -34 -9 -53 -20 -28 -15 -31 -19 -14
-20 12 0 27 6 33 14 7 8 30 17 52 21 42 7 73 30 63 47 -4 6 1 8 15 3 12 -3 21
-2 21 4 0 9 213 121 232 121 5 0 6 -4 3 -10 -3 -5 -2 -10 4 -10 19 0 42 -61
81 -213 38 -152 153 -494 189 -565 47 -92 145 -151 249 -152 139 0 178 43 247
275 35 116 99 253 168 357 70 107 80 128 107 217 17 53 23 102 24 172 l1 99
38 15 c20 8 50 15 65 14 26 -1 26 -1 -5 -10 -18 -5 -35 -14 -39 -21 -11 -18
62 0 135 33 35 16 66 27 69 25 6 -7 -73 -45 -158 -77 -116 -43 -67 -34 66 12
263 92 234 85 341 77 l97 -8 48 47 c33 32 48 55 48 73 0 38 -50 110 -111 161
-103 86 -170 153 -165 166 3 7 1 15 -4 18 -5 3 -6 29 -3 58 6 58 13 52 -100
93 -71 26 -120 -1 -227 -126 l-21 -25 7 30 c4 17 8 163 9 325 3 326 5 340 72
475 62 124 197 285 239 285 13 0 29 9 37 20 13 19 18 20 60 10 39 -10 51 -9
91 9 53 23 66 48 65 119 -1 79 -19 115 -81 166 -32 25 -62 46 -68 46 -5 0 -10
6 -10 14 0 11 -14 13 -67 8 -48 -4 -64 -2 -59 7 10 15 -18 14 -89 -4 -33 -9
-96 -19 -140 -22 -44 -3 -89 -11 -101 -18 -15 -10 -90 -14 -280 -17 l-259 -3
-42 -29 c-24 -16 -43 -34 -43 -41 0 -15 -36 -31 -87 -41 -21 -4 -67 -18 -103
-32 -49 -19 -87 -25 -155 -27 -109 -2 -148 -12 -140 -32 4 -12 0 -14 -15 -10
-11 3 -23 -1 -28 -9 -6 -12 -16 -11 -65 3 l-58 16 -37 -32 c-38 -32 -95 -63
-122 -66 -8 -1 -23 -2 -32 -3 -12 -1 -18 -11 -18 -29 0 -33 -68 -122 -120
-157 -62 -41 -64 -90 -9 -219 15 -37 26 -74 23 -82 -6 -15 -2 -17 41 -20 11
-1 42 -8 68 -16 47 -13 48 -15 42 -44 -9 -40 -7 -107 3 -117 5 -5 37 1 73 12
35 11 65 20 67 20 7 0 0 -40 -8 -45 -14 -9 -12 -27 5 -49 12 -16 19 -18 40 -8
22 10 25 9 25 -7 0 -29 22 -42 45 -25 10 8 27 12 37 8 10 -3 18 -1 18 4 0 12
22 21 79 32 l43 8 -5 -172 c-5 -191 -17 -247 -74 -364 -40 -81 -62 -102 -109
-102 -17 0 -53 -7 -80 -16 -27 -9 -94 -19 -149 -24 -78 -6 -113 -14 -160 -36
-50 -24 -73 -29 -137 -29 -90 0 -116 14 -163 90 l-30 48 0 171 c0 170 0 172
47 361 126 508 132 590 67 970 -38 221 -16 314 106 444 77 82 172 148 271 190
82 35 183 65 191 57 3 -3 14 -1 25 5 17 9 16 5 -6 -27 -14 -21 -26 -44 -26
-51 0 -24 21 -13 41 22 22 37 36 47 24 18 -4 -11 5 -7 24 11 24 23 34 27 43
18 9 -9 8 -16 -4 -29 -9 -10 -28 -43 -42 -74 -30 -63 -131 -190 -149 -186 -7
1 -11 -4 -9 -12 1 -7 -14 -33 -34 -58 -46 -56 -35 -72 13 -18 108 121 159 174
166 175 13 0 -20 -52 -77 -124 -53 -65 -73 -103 -43 -77 8 6 16 9 19 6 7 -7
78 70 177 194 104 130 244 281 260 281 23 0 10 -32 -20 -48 -57 -32 -66 -41
-50 -51 12 -7 10 -15 -7 -43 -11 -18 -33 -45 -47 -58 -30 -28 -95 -114 -95
-125 0 -4 7 -5 15 -1 25 9 12 -31 -18 -54 -14 -11 -24 -26 -22 -33 6 -16 -78
-124 -167 -214 -39 -40 -69 -75 -67 -78 7 -7 87 71 209 204 57 62 106 108 108
102 2 -7 -4 -21 -14 -32 -9 -10 -14 -22 -10 -26 3 -4 20 10 37 30 17 20 39 37
49 37 10 0 27 13 36 30 12 20 21 26 25 18 11 -17 36 8 126 120 41 52 77 91 80
88 3 -3 -5 -20 -19 -38 -35 -45 -61 -98 -49 -98 6 0 29 25 52 55 23 30 46 55
51 55 6 0 -2 -16 -17 -36 -15 -19 -25 -38 -22 -41 3 -2 10 5 17 16 11 21 30
29 30 12 0 -5 -29 -44 -65 -86 -68 -80 -90 -122 -30 -57 41 44 45 40 10 -8
-14 -19 -25 -45 -25 -59 0 -24 1 -24 41 14 50 49 248 278 311 360 38 50 53 62
94 75 27 7 57 13 67 12 10 -1 42 5 70 13 29 8 113 26 187 40 154 28 207 42
215 55 7 11 -45 4 -155 -23 -77 -18 -240 -30 -240 -17 0 3 13 17 28 31 17 16
56 33 108 47 45 11 97 28 115 36 19 9 24 13 12 10 -47 -11 -20 5 60 36 45 18
89 39 97 45 8 7 28 15 43 19 51 12 167 68 161 78 -3 5 0 8 7 7 8 -2 47 10 87
25 39 16 75 27 78 24 3 -4 -4 -9 -15 -13 -12 -3 -21 -12 -21 -18 0 -13 -107
-63 -129 -60 -8 1 -26 -8 -40 -19 l-26 -21 30 7 c98 24 288 128 344 190 14 14
30 26 38 26 7 0 13 7 13 15 0 9 7 18 15 21 8 3 17 21 21 40 7 38 24 56 24 25
0 -25 -20 -71 -32 -71 -4 0 -8 -7 -8 -17 0 -15 1 -15 18 0 10 10 21 15 24 12
3 -3 8 8 11 25 4 16 13 30 21 30 19 0 26 22 26 81 0 36 -4 49 -14 49 -8 0 -18
4 -21 10 -3 6 1 7 9 4 12 -5 16 1 16 21 0 15 -4 24 -10 20 -18 -11 -11 15 11
38 l20 22 -31 3 c-16 2 -28 7 -25 12 3 5 -7 12 -22 16 -47 10 -54 13 -49 23 3
5 -7 11 -22 14 -15 3 -39 17 -53 31 -20 18 -29 22 -38 13 -8 -8 -21 -6 -48 6
l-38 18 25 -20 c14 -12 22 -21 18 -22 -5 -1 -11 -2 -15 -3 -5 -1 -14 -5 -21
-9 -17 -12 -278 -83 -332 -92 -25 -3 -58 -9 -74 -11 -16 -3 -33 -7 -38 -10
-18 -11 -6 9 41 69 59 76 198 285 247 373 20 35 37 64 40 64 7 0 -17 -53 -36
-80 -24 -33 -26 -47 -5 -30 12 10 15 10 15 -3 0 -10 6 -13 19 -10 12 3 17 11
14 19 -6 16 5 18 27 4 11 -7 16 -4 20 13 3 12 25 35 48 50 25 17 42 36 42 48
0 10 5 19 11 19 5 0 7 4 4 10 -3 5 1 20 9 32 9 12 16 30 16 40 0 9 9 20 20 23
11 4 36 31 55 61 19 30 38 54 43 54 4 0 17 -7 28 -15 20 -14 23 -10 74 75 29
50 57 90 62 90 5 0 14 11 20 25 6 14 20 25 31 25 15 0 17 3 8 14 -9 11 -8 18
6 32 17 17 19 22 22 52 0 7 6 10 11 7 6 -3 10 1 10 9 0 9 5 16 10 16 6 0 15
11 22 25 6 13 15 22 19 19 5 -3 21 15 37 40 16 27 35 45 45 46 10 0 15 5 12
10 -4 6 8 10 28 10 30 0 37 4 46 32 14 39 6 50 -10 14 -12 -26 -39 -36 -39
-15 0 6 16 30 36 51 25 28 34 34 29 19 -20 -63 77 36 189 193 29 41 51 64 55
57 11 -17 31 10 80 104 22 44 37 81 31 83 -14 5 -12 22 3 22 21 0 45 51 62
139 15 70 15 85 4 92 -11 7 -11 9 2 9 11 0 23 28 44 99 27 96 28 104 22 272
-6 208 -21 276 -98 433 -46 94 -62 116 -122 170 -37 33 -79 80 -93 103 -14 24
-30 43 -36 43 -7 0 -38 18 -69 40 -32 22 -72 43 -91 47 -18 3 -38 9 -43 14
-19 14 -67 30 -60 19 9 -15 -57 -12 -105 5 -46 16 -108 18 -180 4z m-4034
-822 c26 -50 26 -77 0 -77 -19 0 -56 78 -56 119 0 29 2 32 16 20 8 -7 27 -35
40 -62z m4494 -867 c0 -5 -5 -10 -11 -10 -5 0 -7 5 -4 10 3 6 8 10 11 10 2 0
4 -4 4 -10z m-46 -71 c-24 -27 -30 -15 -9 18 12 17 20 23 23 15 2 -7 -4 -22
-14 -33z m-173 -155 c-12 -26 -20 -49 -17 -51 2 -2 18 19 36 47 18 28 35 49
37 46 7 -6 -63 -136 -84 -156 -14 -13 -14 -12 -9 10 l7 25 -15 -24 c-7 -14
-12 -31 -9 -38 6 -16 -23 -66 -84 -143 -30 -37 -49 -54 -51 -45 -5 21 -24 19
-50 -5 -28 -26 -29 -26 -34 15 -2 19 0 35 5 35 4 0 6 4 3 9 -8 13 93 153 107
148 7 -2 11 -16 9 -31 -1 -14 -1 -26 1 -26 10 0 58 80 53 88 -3 5 1 15 9 22 8
7 15 19 15 26 0 8 4 14 10 14 5 0 23 21 40 46 18 25 34 43 37 41 2 -3 -5 -27
-16 -53z m-106 -44 c3 -5 1 -10 -4 -10 -6 0 -11 5 -11 10 0 6 2 10 4 10 3 0 8
-4 11 -10z m-2027 -99 c3 -8 -1 -12 -9 -9 -7 2 -15 10 -17 17 -3 8 1 12 9 9 7
-2 15 -10 17 -17z m1840 -193 c-8 -12 -21 -24 -29 -26 -8 -3 -3 7 10 22 30 32
39 34 19 4z m-1058 -19 c-7 -11 -14 -19 -16 -16 -7 7 7 37 17 37 6 0 5 -9 -1
-21z m1014 -71 c-4 -6 -7 -18 -8 -28 -1 -9 -10 -35 -21 -58 -19 -41 -38 -52
-50 -32 -8 13 64 142 76 134 5 -3 6 -10 3 -16z m57 -76 c-18 -34 -12 -49 9
-22 25 32 27 8 4 -50 -17 -42 -24 -46 -54 -30 -18 10 -18 13 13 69 18 33 33
58 35 56 2 -2 -1 -12 -7 -23z m-137 -68 c9 -3 16 -10 16 -15 0 -4 -7 -5 -17
-2 -11 4 -14 3 -9 -5 5 -8 0 -12 -13 -12 -19 0 -20 2 -9 20 7 11 14 20 15 20
1 0 8 -3 17 -6z m36 -37 c0 -7 -6 -21 -12 -30 -12 -16 -14 -16 -26 4 -12 19
-11 20 7 14 15 -5 21 -2 21 9 0 9 2 16 5 16 3 0 5 -6 5 -13z m-108 -19 c-7 -7
-12 -8 -12 -2 0 14 12 26 19 19 2 -3 -1 -11 -7 -17z m-1123 -52 c-12 -20 -23
-35 -26 -33 -2 3 6 21 18 41 12 20 23 35 26 33 2 -3 -6 -21 -18 -41z m1011
-140 c0 -3 -4 -8 -10 -11 -5 -3 -10 -1 -10 4 0 6 5 11 10 11 6 0 10 -2 10 -4z
m-341 -1090 c-15 -15 -192 -77 -211 -74 -19 4 -12 9 36 32 33 15 75 29 93 30
19 2 36 6 40 10 3 3 15 6 26 6 11 0 18 -2 16 -4z m-1229 -600 c0 -3 -4 -8 -10
-11 -5 -3 -10 -1 -10 4 0 6 5 11 10 11 6 0 10 -2 10 -4z m-260 -161 c-13 -14
-26 -23 -28 -20 -3 3 5 16 18 30 13 14 26 23 28 20 3 -3 -5 -16 -18 -30z
m-540 -2625 c0 -5 -7 -7 -15 -4 -8 4 -15 8 -15 10 0 2 7 4 15 4 8 0 15 -4 15
-10z m-23 -56 c-3 -3 -12 -4 -19 -1 -8 3 -5 6 6 6 11 1 17 -2 13 -5z"/>
<path d="M8160 8010 c0 -5 5 -10 10 -10 6 0 10 5 10 10 0 6 -4 10 -10 10 -5 0
-10 -4 -10 -10z"/>
<path d="M6865 9901 c-22 -11 -35 -20 -28 -20 20 -2 118 22 128 31 18 16 -61
7 -100 -11z"/>
<path d="M4045 9250 c-3 -5 -1 -10 4 -10 6 0 11 5 11 10 0 6 -2 10 -4 10 -3 0
-8 -4 -11 -10z"/>
<path d="M6937 8326 c-5 -13 0 -16 26 -15 18 0 41 4 52 9 18 8 18 9 -5 9 -14
1 -35 4 -46 7 -14 4 -23 0 -27 -10z"/>
<path d="M6865 8290 c-3 -5 1 -10 9 -10 9 0 16 5 16 10 0 6 -4 10 -9 10 -6 0
-13 -4 -16 -10z"/>
<path d="M6610 8260 c0 -5 5 -10 10 -10 6 0 10 5 10 10 0 6 -4 10 -10 10 -5 0
-10 -4 -10 -10z"/>
<path d="M6455 8220 c-3 -5 -1 -10 4 -10 6 0 11 5 11 10 0 6 -2 10 -4 10 -3 0
-8 -4 -11 -10z"/>
<path d="M6315 8140 c-8 -13 15 -13 35 0 12 8 11 10 -7 10 -12 0 -25 -4 -28
-10z"/>
<path d="M6665 8125 c-61 -24 -56 -35 6 -13 36 12 80 38 64 37 -6 0 -37 -11
-70 -24z"/>
<path d="M6128 8099 c-10 -5 -18 -14 -18 -19 0 -10 70 7 85 21 13 13 -45 11
-67 -2z"/>
<path d="M6035 8060 c-3 -5 -1 -10 4 -10 6 0 11 5 11 10 0 6 -2 10 -4 10 -3 0
-8 -4 -11 -10z"/>
<path d="M6310 8020 c0 -5 4 -10 9 -10 6 0 13 5 16 10 3 6 -1 10 -9 10 -9 0
-16 -4 -16 -10z"/>
<path d="M7675 7258 c-16 -29 -39 -69 -52 -88 -33 -49 -29 -62 5 -14 41 56 94
154 84 154 -5 0 -22 -24 -37 -52z"/>
<path d="M8485 6921 c-43 -11 -96 -40 -127 -70 -15 -14 -43 -41 -63 -59 -19
-19 -35 -38 -35 -44 0 -6 -15 -28 -34 -49 -26 -28 -36 -50 -41 -86 -3 -26 -14
-79 -25 -118 -11 -38 -19 -90 -19 -115 1 -56 -17 -134 -30 -138 -6 -2 -11 -10
-11 -18 0 -9 4 -13 9 -10 4 3 6 -6 3 -19 -2 -14 -8 -22 -13 -19 -5 3 -6 -10
-3 -28 4 -23 3 -29 -4 -19 -8 10 -10 4 -9 -25 0 -21 -5 -100 -11 -174 -35
-394 -43 -550 -30 -550 4 0 8 17 9 38 1 20 5 48 10 62 6 17 7 -3 5 -60 -4 -92
7 -83 18 15 8 70 36 165 48 165 12 0 10 -93 -4 -144 -9 -36 -9 -55 4 -107 9
-35 17 -55 17 -44 1 11 8 29 16 39 14 19 15 17 15 -20 2 -211 15 -458 39 -744
5 -58 12 -298 16 -535 3 -236 10 -479 16 -540 11 -121 6 -275 -19 -550 -15
-169 -19 -336 -11 -500 5 -90 -17 -311 -36 -378 -17 -60 -28 -148 -15 -127 5
8 8 -6 8 -36 -1 -37 -10 -66 -39 -121 -22 -40 -39 -78 -39 -85 -1 -7 -15 -29
-32 -48 l-31 -35 20 35 c26 44 97 239 90 246 -3 3 -17 -30 -31 -73 -30 -90
-86 -195 -107 -202 -12 -4 -12 -1 1 15 14 18 14 18 -6 1 -22 -18 -54 -23 -54
-8 0 15 -72 21 -88 8 -12 -9 -16 -9 -19 1 -3 6 -14 12 -25 12 -18 0 -18 -1 -4
-16 22 -21 20 -34 -4 -34 -19 0 -19 -1 1 -35 21 -35 21 -35 1 -35 -16 0 -12
-8 24 -48 24 -26 44 -53 44 -61 0 -42 123 -89 242 -93 42 -2 71 -6 65 -10 -28
-18 41 -6 71 12 18 11 38 20 45 20 6 0 24 7 40 14 29 16 35 9 15 -14 -7 -8 3
0 22 18 20 17 41 32 46 32 15 0 44 33 44 50 0 10 -3 10 -15 0 -14 -11 -14 -10
-5 16 9 26 9 27 -4 10 -8 -10 -20 -15 -26 -11 -6 4 -22 -1 -37 -10 -14 -9 -22
-12 -19 -6 4 6 2 11 -3 11 -21 0 -11 26 17 47 18 13 37 44 52 82 12 33 26 58
31 56 8 -6 62 66 54 73 -8 8 -60 -40 -72 -66 -7 -15 -12 -20 -12 -12 0 8 6 26
14 40 8 14 14 35 15 47 0 12 18 40 41 64 30 31 39 49 36 65 -2 13 -1 21 4 19
4 -3 13 11 19 30 6 19 15 37 20 40 11 7 -8 -61 -26 -97 -19 -36 -18 -48 2 -20
18 27 34 21 26 -10 -7 -29 -48 -89 -55 -82 -3 4 -1 -10 5 -30 9 -28 14 -33 25
-24 7 6 11 13 9 16 -3 2 4 12 14 21 11 9 22 32 25 51 4 27 3 30 -4 15 -16 -34
-12 -4 10 83 12 45 25 80 28 77 7 -7 41 64 41 86 0 9 9 27 20 40 l19 24 2 -40
c1 -22 3 -31 6 -20 3 11 9 24 14 30 5 5 9 17 9 28 0 10 4 16 9 13 4 -3 6 7 4
22 -4 21 -2 24 6 12 6 -9 11 -10 11 -3 0 6 3 19 7 29 5 13 3 15 -7 9 -21 -13
-5 99 20 141 23 36 28 63 34 172 4 57 2 62 -16 62 -16 0 -19 4 -13 23 3 12 7
29 7 37 0 8 6 29 13 45 8 17 14 64 15 105 2 108 3 105 -15 90 -13 -10 -15 -9
-15 8 0 12 4 23 9 27 5 3 13 20 17 37 3 18 13 43 21 55 15 22 10 48 -7 38 -14
-9 -23 41 -14 73 12 42 12 65 1 89 -12 27 4 180 35 318 11 51 17 107 14 130
-3 22 1 117 8 212 8 94 11 220 8 281 -3 74 -1 111 6 116 7 4 8 15 3 29 -5 13
-10 167 -11 343 0 175 -2 364 -3 419 -2 98 -1 100 21 103 18 3 23 -1 20 -15
-2 -10 -7 -22 -13 -26 -6 -5 -4 -7 5 -4 22 5 24 69 5 204 -25 183 -54 311 -86
385 -16 37 -29 84 -29 107 0 70 73 248 139 338 23 32 51 53 108 80 100 49 106
59 70 122 -17 31 -23 52 -17 56 16 10 12 23 -10 30 -16 5 -18 9 -8 25 11 16 8
24 -17 49 -27 29 -27 32 -12 49 20 22 22 55 5 70 -7 5 -33 15 -58 22 -25 6
-56 18 -68 27 -23 14 -23 15 -5 35 18 21 18 21 -4 9 -21 -10 -24 -8 -38 25 -8
20 -15 40 -15 44 0 21 -66 94 -98 107 -20 8 -42 22 -48 32 -10 13 -33 16 -121
18 -59 1 -121 -2 -138 -6z m342 -4223 c-3 -8 -6 -5 -6 6 -1 11 2 17 5 13 3 -3
4 -12 1 -19z m-102 -568 c3 -5 1 -10 -4 -10 -6 0 -11 5 -11 10 0 6 2 10 4 10
3 0 8 -4 11 -10z m-120 -95 c-3 -26 -9 -45 -12 -42 -2 3 -1 26 2 52 4 25 10
44 12 41 3 -3 2 -26 -2 -51z m-184 -428 c-10 -9 -11 -8 -5 6 3 10 9 15 12 12
3 -3 0 -11 -7 -18z"/>
<path d="M8027 6594 c-69 -54 -61 -60 9 -7 17 12 33 20 36 18 3 -3 8 1 11 10
10 24 -6 18 -56 -21z"/>
<path d="M7440 6355 c-14 -8 -20 -14 -14 -15 5 0 19 7 30 15 24 18 16 19 -16
0z"/>
<path d="M8111 6274 c0 -11 3 -14 6 -6 3 7 2 16 -1 19 -3 4 -6 -2 -5 -13z"/>
<path d="M8071 6084 c0 -11 3 -14 6 -6 3 7 2 16 -1 19 -3 4 -6 -2 -5 -13z"/>
<path d="M8061 6044 c0 -11 3 -14 6 -6 3 7 2 16 -1 19 -3 4 -6 -2 -5 -13z"/>
<path d="M6301 5966 c-16 -19 -11 -29 8 -17 7 5 12 14 9 21 -3 9 -8 7 -17 -4z"/>
<path d="M6775 5913 c-50 -57 -63 -79 -42 -67 15 9 97 102 97 110 0 13 -20 -2
-55 -43z"/>
<path d="M5945 5894 c-30 -33 -33 -55 -4 -28 22 20 44 54 34 54 -3 0 -17 -12
-30 -26z"/>
<path d="M8043 5865 c0 -27 2 -38 4 -22 2 15 2 37 0 50 -2 12 -4 0 -4 -28z"/>
<path d="M6000 5829 c0 -5 5 -7 10 -4 6 3 10 8 10 11 0 2 -4 4 -10 4 -5 0 -10
-5 -10 -11z"/>
<path d="M6634 5748 l-29 -31 33 22 c17 12 32 27 32 32 0 14 -4 11 -36 -23z"/>
<path d="M8042 5755 c0 -16 2 -22 5 -12 2 9 2 23 0 30 -3 6 -5 -1 -5 -18z"/>
<path d="M5880 5555 c-7 -9 -8 -15 -2 -15 5 0 12 7 16 15 3 8 4 15 2 15 -2 0
-9 -7 -16 -15z"/>
<path d="M5889 5494 c-21 -24 -22 -26 -3 -16 25 13 50 42 37 42 -5 0 -20 -12
-34 -26z"/>
<path d="M6280 5505 c-8 -9 -8 -15 -2 -15 12 0 26 19 19 26 -2 2 -10 -2 -17
-11z"/>
<path d="M8001 5314 c0 -11 3 -14 6 -6 3 7 2 16 -1 19 -3 4 -6 -2 -5 -13z"/>
<path d="M8141 5254 c0 -11 3 -14 6 -6 3 7 2 16 -1 19 -3 4 -6 -2 -5 -13z"/>
<path d="M2380 4876 c7 -7 14 -6 21 1 9 9 7 12 -9 10 -14 -1 -18 -5 -12 -11z"/>
<path d="M2258 4873 c7 -3 16 -2 19 1 4 3 -2 6 -13 5 -11 0 -14 -3 -6 -6z"/>
<path d="M2155 4836 c-16 -7 -38 -11 -48 -8 -13 3 -16 0 -11 -12 3 -9 14 -16
23 -16 11 0 7 -6 -11 -18 -28 -17 -36 -32 -18 -32 6 0 10 5 10 11 0 6 8 8 20
4 19 -6 73 21 66 34 -4 6 21 19 68 35 10 4 16 9 14 12 -3 3 -23 -2 -43 -10
-47 -20 -54 -20 -29 -1 25 19 2 20 -41 1z"/>
<path d="M2857 4843 c-4 -3 -7 -11 -7 -17 0 -6 5 -5 12 2 6 6 9 14 7 17 -3 3
-9 2 -12 -2z"/>
<path d="M1860 4810 c-9 -6 -10 -10 -3 -10 6 0 15 5 18 10 8 12 4 12 -15 0z"/>
<path d="M2344 4802 c11 -12 18 -11 42 1 l29 15 -42 -1 c-35 -2 -40 -4 -29
-15z"/>
<path d="M2574 4789 c-32 -18 -74 -40 -93 -50 -18 -10 -39 -15 -47 -12 -8 3
-14 0 -14 -6 0 -6 -8 -8 -17 -4 -16 6 -17 5 -3 -12 14 -17 13 -18 -10 -11 -14
4 -33 8 -43 7 -9 0 -15 5 -11 10 3 6 -8 3 -25 -5 -17 -9 -31 -19 -31 -22 0 -3
6 -2 13 2 6 4 9 4 5 -1 -9 -10 -68 -13 -68 -3 0 3 23 17 51 31 36 17 46 26 35
30 -8 3 -18 2 -21 -3 -4 -6 -14 -10 -23 -10 -13 0 -12 3 5 15 12 8 35 13 51
11 27 -3 29 -1 20 14 -6 9 -18 16 -27 16 -17 -2 -92 -37 -101 -47 -10 -11 -50
-18 -44 -7 4 6 1 9 -7 6 -8 -3 -14 -11 -14 -19 0 -9 -17 -16 -47 -20 -62 -9
-74 -17 -51 -35 14 -11 15 -13 3 -14 -23 0 -60 12 -60 19 0 3 24 19 53 35 28
16 47 31 40 33 -7 2 -21 -1 -32 -7 -12 -6 -21 -7 -21 -1 0 5 6 12 13 15 6 3
-1 4 -17 1 -27 -6 -27 -5 -11 11 15 16 15 18 1 26 -9 5 -22 7 -29 4 -7 -2 -4
-5 6 -5 9 -1 17 -6 17 -12 0 -8 -13 -10 -37 -6 l-36 6 36 -32 35 -33 -50 -28
c-59 -33 -90 -22 -36 12 18 12 28 22 23 22 -6 0 -21 -7 -33 -16 -13 -9 -26
-13 -30 -9 -4 3 1 11 11 16 23 13 13 29 -15 21 -16 -4 -20 -1 -16 9 4 11 -4
14 -34 14 -38 0 -39 0 -18 -17 14 -11 17 -19 9 -24 -6 -3 -14 -2 -18 3 -9 12
-20 11 -64 -10 -21 -10 -44 -16 -51 -14 -8 3 -13 -1 -12 -10 0 -10 -8 -17 -21
-18 -12 -1 -20 2 -17 7 3 4 1 8 -5 8 -5 0 -13 -4 -16 -10 -3 -5 -16 -11 -28
-11 -17 -1 -15 -3 8 -8 27 -6 24 -8 -24 -14 -63 -8 -68 -11 -50 -33 13 -16 10
-16 -34 -10 -39 6 -47 5 -47 -8 0 -9 5 -16 10 -16 6 0 10 5 10 11 0 5 5 7 11
3 8 -5 6 -10 -5 -16 -11 -6 -22 -6 -32 2 -11 10 -14 9 -14 -3 0 -9 -9 -21 -20
-27 -11 -6 -18 -15 -15 -20 3 -5 -7 -10 -22 -12 -20 -2 -29 -9 -31 -25 -3 -18
-15 -26 -58 -39 -43 -12 -58 -13 -69 -4 -23 19 -18 27 17 23 31 -3 32 -2 10 8
-15 9 -21 18 -16 31 3 10 0 18 -6 18 -6 0 -9 4 -5 9 3 5 -3 12 -12 15 -14 4
-14 4 2 3 11 -1 36 6 57 16 20 9 51 18 70 20 28 2 33 7 32 27 -1 14 6 30 14
36 29 21 -44 23 -75 2 -22 -14 -24 -18 -10 -19 29 -2 35 -4 42 -10 3 -4 -7
-10 -22 -14 -15 -3 -32 -12 -36 -18 -6 -9 -10 -9 -14 1 -6 15 -52 16 -73 1
-11 -8 -6 -9 20 -5 25 4 31 3 20 -4 -8 -5 -30 -10 -49 -10 -40 0 -124 -37
-115 -51 3 -5 22 -9 42 -9 34 -1 35 -2 19 -15 -11 -7 -25 -11 -33 -8 -8 3 -14
0 -14 -6 0 -8 -6 -9 -18 -2 -13 7 -23 6 -32 -2 -10 -9 -11 -9 -6 1 18 31 -42
-2 -147 -82 -31 -24 -44 -28 -77 -23 -36 5 -40 3 -40 -17 0 -12 6 -28 13 -35
10 -11 7 -12 -13 -6 -14 4 -31 10 -39 13 -9 3 -12 1 -7 -6 4 -7 2 -12 -3 -12
-6 0 -11 -7 -11 -15 0 -9 -12 -20 -26 -25 -45 -17 -83 -49 -86 -73 -2 -16 -10
-22 -28 -22 -17 0 -34 -12 -53 -38 -16 -20 -33 -35 -37 -32 -5 3 -16 -8 -25
-25 -8 -16 -21 -30 -27 -30 -9 0 -88 -77 -88 -86 0 -2 -17 -28 -39 -59 -21
-30 -49 -81 -61 -112 -12 -32 -35 -85 -52 -117 -17 -32 -37 -77 -43 -100 -7
-23 -18 -40 -23 -39 -24 5 -101 -284 -102 -382 0 -33 -2 -91 -4 -130 -4 -83
12 -354 22 -369 3 -6 7 -27 7 -46 1 -38 32 -147 48 -168 17 -22 18 -7 2 31
-22 54 -17 69 6 17 12 -27 18 -54 14 -69 -3 -13 -2 -36 3 -50 5 -14 15 -46 22
-71 13 -43 67 -150 76 -150 3 0 0 9 -6 21 -24 44 1 29 31 -20 18 -28 34 -51
35 -51 2 0 -14 35 -36 77 -65 128 -89 184 -105 254 -8 36 -21 81 -29 100 -8
19 -16 52 -20 74 -3 22 -10 56 -16 75 -6 19 -8 46 -5 60 3 14 1 79 -4 145 -5
69 -5 125 0 131 5 6 9 31 8 55 0 24 6 73 15 109 9 36 17 84 17 106 2 46 12 73
23 56 3 -6 2 -30 -4 -54 -5 -24 -9 -54 -9 -68 l1 -25 7 25 c4 14 6 -79 4 -207
-4 -245 14 -479 41 -532 8 -14 17 -46 21 -71 4 -25 20 -73 36 -108 16 -34 29
-65 29 -68 0 -3 9 -17 20 -31 11 -14 17 -29 14 -34 -7 -12 20 -60 50 -88 14
-13 23 -27 21 -31 -3 -4 13 -28 35 -52 22 -25 37 -48 34 -51 -3 -2 7 -14 22
-26 17 -13 30 -18 34 -11 3 5 39 -25 80 -67 40 -43 85 -86 99 -95 14 -10 21
-18 14 -18 -6 0 -39 25 -71 55 -75 69 -115 76 -44 8 48 -47 91 -103 78 -103
-4 0 -21 7 -37 16 -45 23 -56 12 -12 -13 49 -27 88 -39 79 -24 -12 18 0 13 34
-18 19 -16 39 -27 45 -25 11 5 74 -55 74 -70 0 -5 18 -21 40 -36 23 -14 38
-30 34 -34 -4 -4 0 -4 8 -1 9 3 22 -1 29 -10 7 -8 19 -15 27 -15 9 0 13 -6 9
-15 -6 -17 43 -51 126 -90 26 -12 45 -24 42 -27 -14 -14 87 -80 226 -146 85
-41 176 -90 202 -109 26 -18 71 -41 100 -49 29 -9 78 -29 108 -44 30 -15 79
-31 109 -35 40 -5 55 -12 58 -26 4 -12 14 -19 30 -19 14 0 36 -9 50 -20 14
-11 29 -17 34 -14 5 3 18 -2 30 -10 12 -8 27 -12 34 -10 14 6 195 -44 209 -57
6 -6 5 -9 -4 -9 -10 0 -11 -3 -3 -11 6 -6 37 -12 70 -13 69 -4 85 -10 76 -32
-3 -8 -2 -14 3 -12 5 1 37 -1 72 -5 41 -5 62 -12 62 -21 0 -15 51 -26 123 -26
26 0 47 -4 47 -9 0 -4 11 -6 25 -3 18 3 25 0 25 -12 0 -19 20 -22 20 -3 1 7 6
5 14 -6 10 -13 21 -16 41 -11 19 5 26 3 21 -4 -4 -7 14 -13 51 -16 119 -12
168 -21 165 -30 -7 -17 28 -27 115 -33 57 -4 94 -11 105 -21 14 -11 35 -14 92
-10 42 3 77 2 78 -2 2 -4 20 -5 40 -2 21 2 35 8 32 13 -3 5 0 9 5 9 6 0 11 -4
11 -9 0 -5 14 -16 30 -25 17 -8 30 -10 30 -5 0 6 5 7 12 3 17 -11 34 -12 313
-19 223 -5 370 -19 557 -51 24 -4 29 -3 18 5 -22 15 -6 23 24 11 15 -5 24 -14
21 -20 -3 -5 3 -10 14 -10 12 0 21 7 21 15 0 13 8 15 38 10 52 -9 62 -13 62
-25 0 -6 -11 -8 -27 -4 -22 5 -26 4 -16 -6 6 -7 38 -13 70 -15 58 -2 58 -2 23
11 l-35 12 30 1 c17 0 53 -6 80 -14 29 -9 93 -16 152 -17 56 -1 100 -5 97 -10
-3 -4 0 -8 5 -8 6 0 11 4 11 10 0 6 10 5 25 -2 44 -20 16 -31 -61 -24 -52 5
-74 3 -74 -4 0 -8 30 -11 93 -10 50 1 97 1 102 0 6 -1 47 -2 92 -2 86 0 116 8
92 23 -9 6 20 9 76 8 74 -1 93 -4 105 -19 13 -16 33 -19 160 -21 80 -1 159 -6
175 -11 42 -13 178 -20 335 -18 106 1 137 5 147 16 9 13 52 16 235 20 122 2
252 6 288 8 117 9 316 14 265 7 -54 -7 -71 -26 -27 -32 76 -9 411 1 532 16
153 19 286 30 475 40 72 3 150 10 175 14 44 8 43 9 -26 10 -39 0 -100 4 -135
8 l-64 7 114 12 c106 12 123 17 133 46 2 4 75 4 163 1 170 -7 170 -16 2 -29
-48 -4 -90 -11 -94 -17 -3 -5 3 -7 13 -4 11 3 79 9 152 13 74 4 128 10 122 14
-15 10 23 16 198 34 73 8 138 19 145 24 7 6 40 14 75 18 89 10 94 29 6 21 -62
-6 -67 -5 -50 8 15 11 51 15 144 15 116 0 228 17 336 51 16 5 47 9 68 9 58 0
217 34 391 84 83 24 188 49 232 56 44 7 94 17 110 24 17 7 49 13 73 15 24 1
54 6 66 11 13 5 32 6 43 4 10 -3 29 0 43 6 22 9 21 10 -13 6 -33 -4 -37 -3
-27 9 7 8 19 15 26 15 8 0 14 4 14 9 0 4 12 8 28 8 27 0 119 34 200 75 37 18
46 19 67 8 14 -7 28 -10 32 -7 3 4 1 7 -5 7 -7 0 -12 5 -12 11 0 5 5 7 10 4 6
-3 10 -2 10 4 0 6 17 13 38 17 20 4 31 9 23 12 -8 3 10 13 40 22 30 10 72 25
94 35 33 14 37 15 26 2 -7 -9 -34 -24 -59 -33 -47 -17 -75 -34 -56 -34 5 0 36
11 69 25 33 13 70 25 83 25 12 0 22 5 22 10 0 6 12 15 26 21 38 14 22 24 -17
10 -18 -6 -34 -9 -37 -6 -6 5 68 39 108 49 24 7 24 6 6 -8 -19 -16 -19 -16 1
-16 12 0 28 7 36 15 8 8 37 23 64 34 26 11 72 33 102 49 30 17 60 28 67 25 8
-3 17 2 20 11 4 9 25 26 48 38 32 16 38 17 27 4 -16 -19 -3 -21 24 -2 11 7 27
13 36 13 28 0 179 106 179 126 0 13 6 17 22 15 11 -2 23 3 26 11 3 8 0 11 -7
7 -6 -4 -11 -5 -11 -3 0 2 19 17 42 33 28 20 43 25 45 17 4 -10 11 -9 34 2 37
19 37 27 2 19 -28 -6 -28 -6 -6 10 12 9 28 13 37 10 8 -3 21 -2 27 2 9 5 7 9
-6 14 -18 6 -9 15 89 82 6 4 7 10 4 14 -4 3 -26 -10 -50 -30 -23 -20 -64 -44
-90 -54 -27 -9 -48 -23 -48 -30 0 -8 -18 -21 -40 -29 -22 -9 -40 -22 -40 -29
0 -11 -67 -54 -85 -54 -15 0 -3 51 15 60 11 6 19 18 19 28 -1 16 -2 16 -6 -1
-2 -9 -9 -17 -16 -17 -6 0 -21 -9 -33 -21 -12 -12 -41 -23 -66 -26 -23 -2 -64
-16 -90 -29 -33 -18 -55 -23 -74 -18 l-27 7 34 18 c19 9 38 14 42 9 15 -14 48
1 43 19 -4 12 27 34 129 91 116 64 153 90 130 90 -10 0 -77 -36 -248 -134 -92
-53 -170 -96 -173 -96 -2 0 -4 9 -4 20 0 11 4 20 9 20 6 0 53 27 105 60 53 33
100 60 107 60 6 0 23 8 37 19 15 10 54 32 87 49 33 16 69 39 79 51 12 13 31
21 53 21 22 0 33 5 33 14 0 22 19 29 27 10 9 -23 -22 -44 -64 -44 -26 0 -33
-4 -33 -20 0 -32 41 -25 85 15 25 24 44 34 54 29 27 -11 61 -17 61 -10 0 4 -4
16 -10 26 -8 15 -3 25 33 55 40 36 41 37 9 20 -39 -19 -46 -17 -28 8 7 9 25
18 39 19 15 1 29 9 32 16 3 8 12 11 21 8 9 -3 28 2 42 13 74 52 134 81 147 71
7 -6 17 -9 23 -8 5 2 11 -1 11 -7 1 -5 -17 -11 -39 -13 -22 -2 -40 -8 -40 -13
0 -6 9 -7 20 -4 38 12 21 -21 -20 -40 -22 -10 -37 -22 -34 -26 3 -5 -4 -21
-15 -36 -58 -73 22 -14 179 132 42 39 118 105 170 148 52 43 105 86 118 97 12
10 22 17 22 15 0 -2 30 8 68 21 37 13 78 24 91 24 20 0 22 2 11 15 -10 12 -24
14 -61 9 -34 -5 -49 -3 -49 5 0 6 -5 11 -10 11 -6 0 -10 -7 -8 -15 2 -10 -17
-24 -57 -42 -33 -15 -63 -31 -66 -35 -3 -5 -14 1 -24 12 -24 27 -58 25 -124
-5 -40 -19 -52 -21 -47 -10 10 27 -39 17 -174 -35 -71 -28 -136 -50 -145 -50
-9 0 -18 -7 -21 -15 -4 -8 -12 -15 -20 -15 -15 0 -39 -38 -30 -47 3 -4 18 -1
33 6 19 9 29 9 31 2 2 -6 8 -11 13 -11 4 0 6 6 3 14 -3 9 5 15 27 20 54 10 56
7 10 -19 -23 -14 -49 -25 -57 -25 -8 0 -14 -6 -14 -13 0 -7 -21 -23 -47 -36
-79 -38 -98 -52 -82 -62 19 -12 -52 -12 -84 0 -18 7 -30 6 -43 -4 -17 -13 -13
-14 40 -15 52 0 57 -2 45 -16 -7 -8 -25 -22 -41 -30 -25 -13 -28 -13 -28 1 0
22 -19 9 -30 -21 -8 -20 -15 -23 -54 -21 -38 2 -43 4 -35 19 6 10 16 18 24 18
8 0 15 5 15 10 0 6 -6 10 -13 10 -8 0 -22 9 -32 20 -18 20 -24 19 -84 -26 -2
-2 -1 -15 3 -29 5 -21 10 -24 25 -15 26 13 34 -8 13 -32 -11 -13 -12 -18 -2
-18 10 0 10 -3 0 -15 -7 -8 -29 -15 -50 -15 -33 0 -37 -3 -33 -20 6 -22 -8
-26 -38 -10 -15 8 -19 7 -19 -4 0 -18 -31 -30 -41 -15 -4 6 -12 8 -19 4 -9 -6
-8 -10 6 -18 16 -9 15 -12 -12 -34 l-29 -25 30 7 c47 10 129 50 270 130 72 41
147 81 168 90 36 15 37 15 37 -7 0 -16 -3 -19 -9 -10 -6 10 -15 9 -44 -8 -37
-22 -48 -40 -24 -40 6 0 -16 -13 -50 -29 -34 -16 -88 -46 -120 -67 -32 -21
-62 -37 -67 -36 -5 2 -17 -4 -26 -13 -14 -13 -23 -14 -39 -6 -23 13 -43 -6
-21 -19 9 -6 -4 -17 -41 -35 -49 -25 -52 -26 -35 -6 11 12 17 23 14 26 -3 3
-35 -4 -73 -16 -49 -15 -64 -24 -56 -32 7 -7 18 -7 37 2 38 17 44 3 10 -24
-28 -22 -129 -65 -154 -65 -6 0 -18 7 -27 16 -9 9 -19 13 -23 9 -4 -3 2 -13
12 -21 11 -7 18 -16 15 -18 -9 -9 -142 -46 -163 -45 -21 0 -21 0 2 9 12 5 22
14 22 21 0 14 -45 4 -74 -17 -20 -14 -20 -14 3 -14 14 0 21 -3 18 -7 -4 -3
-30 -5 -58 -4 -39 1 -74 -8 -151 -39 -97 -39 -177 -53 -162 -28 10 16 -69 4
-141 -21 -43 -15 -56 -17 -52 -6 11 28 -21 23 -33 -6 -8 -19 -22 -31 -39 -35
-14 -3 -42 -9 -62 -14 -46 -13 -100 -12 -119 0 -12 7 -10 11 10 19 18 7 28 6
36 -4 8 -11 12 -11 20 1 5 8 32 21 59 28 45 12 48 14 24 20 -14 4 -49 3 -78
-2 -55 -10 -62 -5 -32 22 24 22 91 34 91 16 0 -9 3 -10 13 -2 7 6 39 14 70 18
37 4 57 11 57 20 0 20 -37 36 -57 26 -27 -14 -159 -41 -233 -47 -61 -6 -64 -5
-40 9 14 8 35 15 47 16 27 0 38 16 17 24 -8 3 -25 -1 -38 -9 -32 -21 -163 -47
-197 -40 -15 4 -33 13 -40 21 -13 16 -54 20 -44 4 3 -5 -7 -13 -22 -16 -17 -5
-28 -3 -31 4 -2 7 -13 12 -25 12 -20 0 -20 1 -3 13 18 13 18 14 1 21 -23 8
-164 -4 -171 -15 -3 -5 0 -9 5 -9 16 0 13 -21 -6 -43 -18 -20 -17 -20 50 -15
37 3 67 2 67 -3 0 -13 -151 -11 -191 2 -19 7 -41 18 -50 25 -11 10 -18 11 -26
3 -8 -8 -16 -7 -30 2 -24 14 -77 0 -81 -23 -2 -11 4 -14 28 -10 16 2 30 9 30
15 0 6 6 4 13 -5 6 -9 21 -18 32 -21 11 -3 -5 -5 -36 -6 -31 0 -71 -6 -89 -12
-26 -9 -34 -9 -41 2 -5 8 -16 14 -26 15 -51 2 -104 18 -99 29 6 17 -30 26 -57
15 -15 -6 -17 -9 -6 -9 11 -1 16 -10 15 -30 -1 -31 -6 -31 -64 4 -17 10 -32
23 -32 27 0 4 -11 8 -24 8 -20 0 -24 -4 -20 -23 3 -20 -3 -25 -44 -39 -43 -13
-51 -13 -80 0 -18 9 -32 19 -32 24 0 17 -95 8 -127 -12 -19 -11 -35 -15 -38
-10 -4 6 -16 10 -28 10 -22 -1 -22 -1 1 -14 l24 -13 -29 -12 c-28 -11 -89 -13
-108 -2 -5 3 4 9 20 13 27 6 26 7 -7 3 -24 -2 -41 2 -49 11 -24 29 -223 15
-276 -19 -9 -5 -13 -3 -13 7 0 9 -7 16 -15 16 -8 0 -15 -9 -15 -20 0 -11 7
-20 16 -20 8 0 12 -5 9 -10 -8 -13 -75 -13 -75 0 0 6 10 10 23 11 21 0 21 1 2
9 -31 13 -43 12 -65 -10 -19 -19 -47 -19 -35 0 5 9 -28 20 -62 20 -13 0 -23
-4 -23 -8 0 -11 -124 12 -170 32 l-35 14 -11 -41 c-10 -41 -11 -42 -55 -43
-176 -4 -215 -8 -234 -24 -11 -10 -36 -20 -56 -24 -63 -11 -290 30 -334 60
-22 16 -65 19 -65 5 0 -5 7 -11 15 -13 14 -3 14 -5 0 -24 -14 -20 -17 -21 -52
-8 -21 7 -49 14 -63 15 -17 1 -9 5 25 14 44 11 46 13 18 14 -35 1 -155 54
-174 77 -13 16 -49 19 -49 4 0 -5 5 -10 11 -10 6 0 8 -8 4 -19 -4 -15 1 -24
22 -35 26 -14 27 -15 6 -16 -13 0 -23 -4 -23 -10 0 -5 24 -10 53 -11 28 0 45
-3 37 -6 -8 -2 -22 -7 -30 -9 -12 -4 -13 -6 0 -14 24 -15 6 -20 -31 -10 -18 6
-68 10 -111 10 -42 0 -89 5 -105 12 -15 7 -32 12 -38 13 -5 1 -28 7 -50 15
-39 13 -39 14 -15 22 20 6 18 7 -11 4 -20 -2 -42 0 -50 5 -10 6 -7 9 14 9 15
0 27 5 27 10 0 12 -17 12 -45 1 -11 -5 -31 -4 -45 1 -14 5 -70 9 -125 9 -71
-1 -108 3 -129 14 -15 8 -41 15 -56 15 -16 0 -30 6 -33 13 -3 8 -11 6 -27 -9
-21 -20 -25 -21 -83 -8 -84 18 -98 18 -90 -2 4 -12 2 -15 -8 -10 -8 3 -22 9
-33 12 -16 6 -15 9 10 20 l29 13 -32 -6 c-19 -3 -52 3 -85 15 -96 36 -95 36
-68 16 13 -11 49 -33 80 -51 63 -37 49 -42 -45 -17 -33 8 -109 22 -170 30 -78
10 -112 19 -118 30 -5 9 -23 22 -41 30 l-31 13 35 2 c45 2 -99 32 -147 31 -18
0 -33 4 -33 10 0 5 7 8 15 4 25 -9 17 1 -19 23 -36 22 -66 27 -66 11 0 -5 7
-10 15 -10 8 0 15 -4 15 -9 0 -9 -20 -4 -92 22 -16 5 -28 15 -28 22 0 8 -6 16
-12 18 -10 4 -10 6 0 6 6 1 12 6 12 12 0 5 -4 8 -9 5 -5 -4 -11 -2 -13 4 -1 5
-18 10 -36 12 -20 1 -38 10 -43 20 -5 10 -18 18 -27 18 -10 0 -37 9 -60 20
-53 26 -72 26 -39 0 14 -11 30 -20 36 -20 6 0 11 -3 11 -8 0 -4 22 -15 50 -25
27 -10 56 -24 64 -33 8 -8 19 -15 23 -15 20 -1 13 -9 -8 -9 -13 0 -40 11 -59
24 -34 23 -70 37 -100 41 -32 3 -70 18 -70 26 0 5 -9 9 -19 9 -11 0 -22 4 -25
9 -3 4 -27 16 -53 26 -26 10 -84 35 -128 56 -89 42 -182 78 -266 103 -31 9
-62 23 -69 31 -6 7 -24 17 -40 20 -16 3 -34 12 -40 20 -6 8 -25 17 -41 20 -16
4 -31 11 -34 16 -9 14 28 11 50 -4 11 -8 63 -28 115 -46 52 -18 106 -38 119
-44 13 -7 32 -11 42 -9 28 5 179 -37 244 -68 68 -32 115 -45 115 -31 0 5 -18
25 -40 45 -36 33 -45 36 -98 36 -45 0 -71 7 -113 29 -30 16 -83 37 -119 47
-64 17 -276 103 -315 128 -11 7 -40 18 -65 25 -49 14 -143 63 -285 149 -87 52
-92 54 -147 49 -51 -4 -61 -2 -105 28 -26 17 -65 37 -85 44 -20 7 -38 17 -40
22 -2 6 -28 20 -58 33 -76 30 -220 110 -251 138 -15 13 -33 24 -40 26 -8 2
-22 11 -31 19 -10 9 -18 12 -18 7 0 -5 -5 -1 -11 8 -9 17 -24 21 -121 33 -30
4 -48 11 -48 19 0 8 -9 16 -20 19 -11 3 -19 11 -18 18 2 8 -8 15 -22 17 -33 5
-48 20 -27 28 23 9 3 26 -52 44 -24 8 -66 35 -94 60 -27 25 -62 53 -78 63 -16
11 -29 23 -29 28 0 4 -11 14 -24 21 -14 7 -45 32 -70 56 -25 24 -46 40 -46 36
0 -3 -6 -1 -13 5 -8 6 -16 10 -18 8 -2 -1 1 2 7 7 9 7 1 25 -30 65 -56 73 -82
124 -67 129 9 3 9 7 1 17 -9 10 -3 21 24 46 20 18 36 37 36 42 0 5 8 15 17 22
16 12 16 14 1 29 -9 9 -23 16 -30 16 -13 0 30 39 44 40 3 0 19 12 35 28 16 15
68 58 115 97 48 38 85 71 83 74 -3 2 -50 -30 -105 -72 -55 -42 -100 -73 -100
-68 0 4 21 22 46 41 25 18 96 74 156 124 152 125 156 129 136 123 -9 -3 -66
-45 -128 -94 -103 -81 -175 -133 -209 -149 -7 -4 -17 -1 -23 7 -7 10 -8 8 -3
-8 7 -24 -22 -47 -62 -48 -28 -1 -29 3 -5 21 16 13 16 14 -3 7 -19 -6 -19 -6
-2 14 9 11 17 24 17 29 0 10 170 148 293 237 36 26 118 74 182 107 128 65 148
78 139 91 -3 5 1 7 8 4 16 -6 29 3 44 30 6 11 23 21 37 23 14 2 28 10 31 18 9
24 -33 16 -81 -16 -24 -16 -48 -30 -52 -30 -5 0 -46 -21 -92 -46 -46 -26 -109
-58 -139 -71 -30 -14 -71 -38 -93 -55 -21 -17 -40 -28 -43 -25 -14 14 261 197
296 197 5 0 24 16 44 35 20 19 40 34 44 32 4 -1 30 18 58 42 29 26 39 39 24
32 -25 -12 -25 -12 -4 6 11 10 31 26 45 35 23 16 23 17 3 17 -12 1 -27 -6 -34
-14 -14 -17 -35 -21 -24 -4 4 7 -1 7 -16 -1 -13 -7 -26 -8 -31 -3 -21 21 195
168 229 156 7 -3 11 0 10 6 -2 6 15 22 37 35 62 39 27 30 -80 -20 -53 -25 -99
-43 -102 -40 -3 2 31 26 76 52 45 26 81 48 81 49 0 2 -7 6 -16 9 -10 4 -13 2
-8 -6 5 -8 2 -9 -10 -5 -11 5 -15 3 -10 -5 5 -8 2 -9 -10 -5 -11 5 -15 3 -10
-5 5 -8 2 -9 -11 -5 -12 5 -53 -13 -129 -56 -185 -106 -314 -158 -276 -112 7
8 28 15 47 15 27 0 34 4 30 15 -4 8 -2 17 3 20 4 3 10 0 12 -7 3 -7 10 -8 17
-4 11 7 11 10 1 16 -9 5 5 17 41 35 80 41 102 57 89 65 -16 10 15 40 41 40 10
0 19 6 19 13 0 20 139 97 234 131 10 3 16 9 13 12 -6 6 -114 -40 -241 -103
-72 -35 -98 -36 -56 -2 l25 20 -34 -17 c-33 -15 -71 -24 -116 -25 -11 0 -62
-22 -114 -50 -102 -55 -131 -61 -50 -10 65 40 57 52 -12 17 -28 -15 -53 -25
-55 -23 -3 2 9 10 25 17 45 18 59 38 24 33 -19 -2 -5 8 40 32 67 35 95 59 35
30 l-33 -16 34 29 c19 16 32 34 30 41 -3 8 -48 -10 -132 -53 -71 -36 -130 -66
-133 -66 -14 0 0 22 24 35 l27 15 -27 -6 c-19 -4 -28 -2 -28 6 0 7 -8 10 -20
7 -11 -3 -18 -1 -15 3 3 5 1 11 -4 14 -5 3 -11 -3 -14 -14 -3 -14 -14 -20 -31
-20 -15 0 -29 -7 -32 -15 -4 -8 -17 -15 -31 -15 -23 0 -23 2 19 45 24 24 46
45 50 45 3 0 20 12 37 28 16 15 54 46 83 70 29 24 77 63 107 88 30 24 60 44
67 44 6 0 14 7 18 15 3 8 12 15 20 15 8 0 18 4 21 10 4 6 -1 7 -12 2 -74 -33
-93 -43 -93 -50 0 -5 -6 -9 -12 -10 -44 -6 -58 -9 -70 -19 -7 -5 -20 -14 -28
-18 -13 -8 -13 -7 -1 8 13 16 12 17 -14 7 -16 -6 -35 -8 -43 -5 -8 3 -23 -2
-33 -11 -11 -10 -19 -12 -19 -6 0 17 61 56 89 57 16 0 26 6 26 15 0 8 19 27
43 41 42 25 71 49 60 49 -3 0 -32 -14 -64 -31z m-574 -49 c0 -5 -2 -10 -4 -10
-3 0 -8 5 -11 10 -3 6 -1 10 4 10 6 0 11 -4 11 -10z m232 -39 c-9 -9 -23 -15
-31 -13 -10 4 -7 10 10 23 29 22 44 15 21 -10z m-377 -13 c4 -3 -3 -12 -15
-18 -17 -9 -21 -9 -15 0 5 8 2 11 -11 7 -57 -16 -75 -17 -69 -7 14 23 92 36
110 18z m510 -19 c-4 -5 -13 -9 -21 -9 -12 0 -12 2 -2 14 14 15 32 11 23 -5z
m-45 -17 c0 -13 -12 -22 -22 -16 -10 6 -1 24 13 24 5 0 9 -4 9 -8z m-610 -12
c0 -5 -2 -10 -4 -10 -3 0 -8 5 -11 10 -3 6 -1 10 4 10 6 0 11 -4 11 -10z m310
0 c0 -5 -2 -10 -4 -10 -2 0 -12 -3 -22 -7 -16 -6 -17 -5 -4 10 17 19 30 22 30
7z m510 -2 c0 -4 -5 -8 -12 -8 -6 0 -22 -10 -35 -22 -13 -12 -23 -17 -23 -11
0 6 7 13 15 17 8 3 15 9 14 13 -3 15 1 19 21 19 11 0 20 -4 20 -8z m-666 -7
c3 -5 -5 -16 -19 -25 -14 -9 -25 -12 -25 -7 0 5 8 12 17 15 15 6 15 8 3 16
-13 8 -12 10 2 10 9 0 19 -4 22 -9z m96 -1 c0 -5 -9 -14 -20 -20 -14 -7 -20
-7 -20 0 0 5 7 10 16 10 8 0 12 5 9 10 -3 6 -1 10 4 10 6 0 11 -4 11 -10z
m-59 -43 c-10 -9 -11 -8 -5 6 3 10 9 15 12 12 3 -3 0 -11 -7 -18z m-112 -14
c-6 -7 -15 -13 -20 -13 -5 0 -6 6 -3 13 3 8 11 14 19 14 11 0 12 -4 4 -14z
m631 7 c0 -5 -7 -10 -16 -10 -8 0 -12 5 -9 10 3 6 10 10 16 10 5 0 9 -4 9 -10z
m-810 -10 c0 -5 -6 -10 -12 -10 -7 0 -24 -3 -38 -6 -24 -6 -25 -6 -5 9 22 18
55 22 55 7z m-440 -90 c0 -5 -5 -10 -11 -10 -5 0 -7 5 -4 10 3 6 8 10 11 10 2
0 4 -4 4 -10z m-165 -40 c3 -5 1 -10 -4 -10 -6 0 -11 5 -11 10 0 6 2 10 4 10
3 0 8 -4 11 -10z m-32 -26 c8 -8 -3 -34 -15 -34 -5 0 -6 5 -3 10 3 6 1 10 -4
10 -6 0 -11 5 -11 10 0 11 23 14 33 4z m195 -19 c37 -12 26 -34 -20 -36 -48
-3 -75 15 -55 37 12 12 34 12 75 -1z m-102 -61 c-3 -8 -10 -12 -16 -9 -5 3
-10 0 -10 -7 0 -7 -9 -19 -20 -26 -11 -7 -20 -8 -20 -4 0 5 9 17 20 27 11 10
20 23 20 30 0 6 6 17 13 24 10 10 13 9 15 -4 2 -9 1 -23 -2 -31z m428 13 c-6
-17 -54 -52 -54 -40 0 9 52 64 57 59 2 -2 1 -10 -3 -19z m885 -10 c-2 -1 -13
-9 -24 -17 -19 -14 -19 -14 -6 3 7 9 18 17 24 17 6 0 8 -1 6 -3z m-1269 -28
c0 -15 -5 -19 -15 -15 -9 3 -20 -3 -27 -14 -12 -19 -48 -28 -48 -12 0 11 63
61 78 62 6 0 12 -9 12 -21z m20 -22 c0 -2 -15 -16 -32 -33 l-33 -29 29 33 c28
30 36 37 36 29z m130 -27 c-33 -29 -68 -41 -54 -19 8 14 66 49 79 49 6 -1 -6
-14 -25 -30z m148 5 c-6 -14 -18 -25 -26 -25 -12 0 -10 6 8 25 13 14 25 25 27
25 1 0 -3 -11 -9 -25z m-459 -34 c19 -19 19 -19 -15 -18 -25 2 -34 7 -34 20 0
23 25 22 49 -2z m193 -13 c-17 -19 -97 -72 -82 -55 9 10 95 77 99 77 3 0 -5
-10 -17 -22z m188 -23 c-7 -8 -17 -15 -22 -15 -6 0 -5 7 2 15 7 8 17 15 22 15
6 0 5 -7 -2 -15z m-443 -11 c-3 -3 -12 -4 -19 -1 -8 3 -5 6 6 6 11 1 17 -2 13
-5z m283 -44 c-26 -21 -45 -26 -36 -11 4 5 0 12 -6 15 -7 3 -4 4 8 1 12 -3 27
1 34 10 7 9 16 13 19 10 3 -4 -5 -15 -19 -25z m102 -2 c-7 -7 -12 -8 -12 -2 0
14 12 26 19 19 2 -3 -1 -11 -7 -17z m-297 -1 c-11 -8 -70 -43 -130 -80 -61
-36 -126 -79 -145 -96 -27 -23 -38 -27 -52 -20 -10 6 -16 14 -13 20 4 5 10 7
15 4 4 -3 11 2 14 11 4 9 9 14 12 11 4 -3 11 -2 18 4 24 20 90 61 139 85 29
15 58 31 66 38 14 11 67 32 86 35 5 0 1 -5 -10 -12z m-332 -82 c-3 -9 -8 -14
-10 -11 -3 3 -2 9 2 15 9 16 15 13 8 -4z m69 -7 c-7 -7 -12 -8 -12 -2 0 14 12
26 19 19 2 -3 -1 -11 -7 -17z m-217 -74 c-37 -48 -43 -36 -8 14 15 22 30 36
31 31 2 -6 -8 -26 -23 -45z m-105 6 c-16 -30 -22 -19 -7 13 6 14 13 22 15 17
2 -5 -2 -19 -8 -30z m35 -126 c-24 -41 -49 -63 -60 -52 -3 2 14 30 38 62 47
65 62 59 22 -10z m195 17 c-19 -16 -37 -27 -40 -24 -7 7 48 53 63 53 7 0 -4
-14 -23 -29z m185 -51 c-10 -11 -23 -20 -29 -20 -6 1 0 10 13 20 30 26 39 26
16 0z m-338 -127 c-47 -121 -116 -267 -123 -261 -10 10 46 160 98 267 29 58
53 100 55 94 2 -6 -11 -51 -30 -100z m-37 92 c0 -12 -41 -82 -65 -110 -36 -43
-31 -24 13 50 32 56 52 79 52 60z m-160 -19 c0 -3 -4 -8 -10 -11 -5 -3 -10 -1
-10 4 0 6 5 11 10 11 6 0 10 -2 10 -4z m-57 -101 c-3 -9 -8 -14 -10 -11 -3 3
-2 9 2 15 9 16 15 13 8 -4z m137 -50 c0 -8 -4 -15 -10 -15 -5 0 -10 7 -10 15
0 8 5 15 10 15 6 0 10 -7 10 -15z m212 -121 c-32 -79 -55 -122 -69 -129 -11
-6 -28 -17 -37 -24 -23 -19 -20 -2 15 80 35 82 44 98 34 56 -12 -46 2 -30 51
58 26 47 49 83 51 81 2 -2 -18 -57 -45 -122z m-253 52 c-7 -20 -17 -36 -21
-36 -5 0 -1 16 7 36 8 20 15 39 15 42 0 3 3 3 6 -1 3 -3 0 -22 -7 -41z m-8
-89 c-8 -8 -11 -7 -11 4 0 20 13 34 18 19 3 -7 -1 -17 -7 -23z m-22 -68 c-13
-26 -23 -18 -14 10 3 12 11 19 16 16 5 -4 5 -14 -2 -26z m82 -46 c-9 -16 -10
-16 -11 -1 0 9 3 25 7 35 7 16 8 17 11 1 2 -10 -1 -25 -7 -35z m-131 -59 c-17
-50 -24 -35 -9 16 7 24 15 38 17 32 2 -7 -2 -28 -8 -48z m-13 -106 c-3 -8 -6
-5 -6 6 -1 11 2 17 5 13 3 -3 4 -12 1 -19z m3 -48 c0 -11 -4 -20 -10 -20 -5 0
-10 9 -10 20 0 11 5 20 10 20 6 0 10 -9 10 -20z m2110 -154 c0 -3 -6 -6 -13
-6 -7 0 -27 27 -45 60 -18 33 -37 62 -43 65 -5 4 -9 13 -9 22 0 8 25 -18 55
-60 30 -41 55 -78 55 -81z m-2120 99 c0 -8 -4 -15 -10 -15 -5 0 -10 7 -10 15
0 8 5 15 10 15 6 0 10 -7 10 -15z m-31 -85 c1 -13 0 -13 -9 0 -5 8 -9 24 -9
35 l0 20 9 -20 c5 -11 9 -27 9 -35z m144 -123 c-3 -5 -9 -5 -14 0 -13 13 -28
70 -21 78 8 8 41 -67 35 -78z m27 45 c0 -15 -2 -15 -10 -2 -13 20 -13 33 0 25
6 -3 10 -14 10 -23z m-120 9 c0 -6 -4 -12 -8 -15 -5 -3 -9 1 -9 9 0 8 4 15 9
15 4 0 8 -4 8 -9z m638 -69 c8 -12 10 -22 4 -22 -5 0 -17 12 -27 26 -11 17
-13 25 -4 22 7 -2 19 -14 27 -26z m-599 -55 c-1 -31 -1 -31 -9 -7 -11 36 -11
52 0 45 6 -3 10 -21 9 -38z m-19 -37 c0 -5 -2 -10 -4 -10 -3 0 -8 5 -11 10 -3
6 -1 10 4 10 6 0 11 -4 11 -10z m2109 -31 c35 -29 20 -33 -19 -4 -19 14 -27
25 -19 25 8 -1 25 -10 38 -21z m-2085 2 c9 -14 48 -270 44 -289 -8 -33 -68
206 -68 269 0 28 13 39 24 20z m2146 -41 c0 -5 -5 -10 -11 -10 -5 0 -7 5 -4
10 3 6 8 10 11 10 2 0 4 -4 4 -10z m20 -20 c0 -5 -5 -10 -11 -10 -5 0 -7 5 -4
10 3 6 8 10 11 10 2 0 4 -4 4 -10z m165 -10 c3 -5 1 -10 -4 -10 -6 0 -11 5
-11 10 0 6 2 10 4 10 3 0 8 -4 11 -10z m-1699 -19 c15 -12 20 -22 14 -26 -7
-4 -7 -12 0 -25 15 -29 12 -35 -9 -16 -11 10 -17 24 -14 32 3 8 -3 24 -12 34
-23 25 -10 26 21 1z m1593 -16 c13 -20 22 -37 20 -39 -8 -8 -71 53 -65 63 11
18 20 13 45 -24z m-183 11 c10 -8 15 -18 11 -22 -4 -4 -17 2 -29 14 -25 25
-13 30 18 8z m-1926 -54 c0 -7 -4 -10 -10 -7 -5 3 -10 16 -10 28 0 18 2 19 10
7 5 -8 10 -21 10 -28z m2119 -38 c85 -68 97 -104 14 -40 -66 50 -112 96 -96
96 6 0 43 -25 82 -56z m-2053 -31 c5 -36 4 -45 -5 -37 -6 6 -14 35 -17 65 -7
69 13 44 22 -28z m431 62 c9 -24 -1 -27 -15 -5 -8 13 -8 20 -2 20 6 0 13 -7
17 -15z m1699 -13 c-4 -3 -14 2 -24 12 -16 18 -16 18 6 6 13 -6 21 -14 18 -18z
m-199 1 c0 -24 -17 -34 -39 -22 -23 12 -12 39 16 39 15 0 23 -6 23 -17z
m-1362 -33 c3 -5 1 -10 -4 -10 -6 0 -11 5 -11 10 0 6 2 10 4 10 3 0 8 -4 11
-10z m-200 -10 c3 -5 1 -10 -4 -10 -6 0 -11 5 -11 10 0 6 2 10 4 10 3 0 8 -4
11 -10z m1629 -6 c11 -28 6 -34 -19 -22 -19 9 -22 14 -14 25 15 17 26 17 33
-3z m211 -4 c3 -5 2 -10 -4 -10 -5 0 -13 5 -16 10 -3 6 -2 10 4 10 5 0 13 -4
16 -10z m-2385 -10 c0 -5 -4 -10 -10 -10 -5 0 -10 5 -10 10 0 6 5 10 10 10 6
0 10 -4 10 -10z m804 -35 c25 -38 2 -30 -29 11 -23 29 -24 34 -8 25 11 -5 28
-22 37 -36z m-69 25 c3 -5 1 -10 -4 -10 -6 0 -11 5 -11 10 0 6 2 10 4 10 3 0
8 -4 11 -10z m2076 -51 c19 -16 20 -18 4 -10 -34 17 -51 31 -39 31 7 0 22 -9
35 -21z m-2521 -101 c0 -15 -18 -8 -23 10 -4 9 -14 28 -23 42 -9 14 -2 9 15
-10 17 -19 31 -38 31 -42z m29 45 c9 -21 9 -28 -1 -34 -18 -12 -28 -1 -28 32
0 36 13 37 29 2z m2231 -8 c0 -9 -6 -12 -16 -8 -13 5 -13 7 -2 14 17 11 18 11
18 -6z m-2468 -30 c3 -14 1 -25 -3 -25 -5 0 -9 11 -9 25 0 14 2 25 4 25 2 0 6
-11 8 -25z m2348 -35 c33 -25 19 -25 -22 0 -18 11 -26 20 -18 20 8 0 26 -9 40
-20z m-2065 0 c3 -5 1 -10 -4 -10 -6 0 -11 5 -11 10 0 6 2 10 4 10 3 0 8 -4
11 -10z m930 -11 c11 -17 -1 -21 -15 -4 -8 9 -8 15 -2 15 6 0 14 -5 17 -11z
m1218 -6 c-8 -3 -2 -13 15 -28 39 -33 23 -39 -21 -8 -44 31 -46 38 -9 39 15 1
22 -1 15 -3z m87 -8 c16 -19 1 -19 -24 0 -16 12 -17 15 -4 15 8 0 21 -7 28
-15z m-2690 -75 c-1 -16 -40 46 -40 63 0 15 5 11 20 -18 11 -22 20 -42 20 -45z
m639 -2 c13 -21 19 -38 14 -38 -8 0 -53 73 -53 86 0 11 14 -6 39 -48z m2181
-41 c0 -5 6 -5 13 2 11 8 18 6 33 -10 11 -12 26 -18 37 -15 24 6 136 -49 235
-116 40 -27 92 -56 115 -64 77 -27 275 -139 264 -150 -2 -3 -60 23 -128 56
-67 33 -147 68 -176 76 -29 8 -79 31 -110 50 -31 19 -62 34 -69 34 -7 0 -36
16 -65 36 -30 20 -114 66 -186 101 -127 62 -141 72 -127 86 9 8 164 -73 164
-86z m-2400 73 c0 -5 -2 -10 -4 -10 -3 0 -8 5 -11 10 -3 6 -1 10 4 10 6 0 11
-4 11 -10z m80 -27 c-1 -24 -2 -26 -11 -10 -5 9 -7 22 -4 27 10 17 15 11 15
-17z m980 17 c0 -5 -2 -10 -4 -10 -3 0 -8 5 -11 10 -3 6 -1 10 4 10 6 0 11 -4
11 -10z m-1201 -36 c7 5 11 -2 11 -19 0 -14 7 -39 15 -55 9 -17 11 -30 5 -30
-5 0 -24 28 -42 63 -41 77 -45 88 -20 58 11 -13 24 -21 31 -17z m1206 -53 c-9
-8 -55 42 -55 58 1 11 11 4 30 -18 16 -19 27 -37 25 -40z m-775 28 c0 -20 -15
-26 -25 -9 -9 15 3 43 15 35 5 -3 10 -15 10 -26z m-260 -19 c0 -5 -5 -10 -11
-10 -5 0 -7 5 -4 10 3 6 8 10 11 10 2 0 4 -4 4 -10z m854 -16 c5 -14 4 -15 -9
-4 -17 14 -19 20 -6 20 5 0 12 -7 15 -16z m201 -30 c51 -46 31 -44 -32 2 -17
13 -37 24 -43 24 -6 0 -8 5 -5 10 11 18 29 10 80 -36z m10994 42 c-11 -9 -69
-14 -69 -6 0 6 17 10 37 10 20 0 34 -2 32 -4z m-12024 -25 c3 -5 1 -12 -5 -16
-5 -3 -10 1 -10 9 0 18 6 21 15 7z m70 -27 c11 -17 13 -25 4 -22 -16 5 -44 48
-31 48 5 0 17 -12 27 -26z m239 -10 c4 -9 4 -19 2 -21 -8 -8 -26 8 -26 23 0
19 16 18 24 -2z m11454 -6 c3 -14 0 -15 -22 -5 -13 6 -22 15 -19 20 8 14 38 3
41 -15z m72 18 c0 -2 -7 -7 -16 -10 -8 -3 -12 -2 -9 4 6 10 25 14 25 6z
m-11666 -22 c9 -8 16 -22 16 -31 0 -11 -6 -9 -25 8 -13 13 -25 27 -25 32 0 12
18 8 34 -9z m603 -37 c43 -29 79 -61 81 -70 2 -12 -23 1 -80 40 -46 31 -92 63
-103 70 -19 13 -19 13 2 13 12 0 57 -24 100 -53z m233 39 c0 -11 -19 -15 -25
-6 -3 5 1 10 9 10 9 0 16 -2 16 -4z m43 -54 c37 -20 67 -40 67 -44 0 -22 -103
25 -160 72 l-25 21 25 -6 c14 -4 55 -23 93 -43z m-733 -29 c11 -25 23 -43 27
-40 3 4 0 13 -7 22 -15 18 -7 30 13 22 16 -6 29 -59 17 -67 -5 -3 -5 -12 0
-20 19 -29 10 -31 -14 -3 -39 46 -76 105 -76 119 0 29 20 12 40 -33z m915 16
c20 -18 34 -34 31 -36 -5 -5 -96 55 -96 62 0 15 34 1 65 -26z m90 9 c-12 -7
-21 -6 -28 2 -9 10 -8 12 6 7 9 -4 17 -2 17 4 0 6 5 7 11 3 8 -5 6 -10 -6 -16z
m10435 -2 c0 -2 -8 -10 -17 -17 -16 -13 -17 -12 -4 4 13 16 21 21 21 13z
m-11680 -10 c0 -3 -4 -8 -10 -11 -5 -3 -10 -1 -10 4 0 6 5 11 10 11 6 0 10 -2
10 -4z m11790 -6 c27 17 36 10 13 -9 -13 -11 -23 -24 -23 -30 0 -14 -32 -29
-48 -24 -10 4 -8 11 9 29 12 13 19 24 15 24 -4 0 -4 5 0 11 4 8 9 8 13 1 4 -7
12 -8 21 -2z m-8514 -60 c44 -22 86 -40 92 -40 7 0 12 -5 12 -11 0 -12 -22 -7
-105 28 -33 14 -73 28 -88 31 -15 4 -27 11 -27 16 1 5 -4 13 -12 18 -31 23 52
-5 128 -42z m8289 30 c-16 -11 -34 -20 -40 -20 -16 1 38 40 55 40 8 0 2 -9
-15 -20z m-11422 -5 c4 -8 2 -17 -3 -20 -6 -4 -10 3 -10 14 0 25 6 27 13 6z
m2417 -7 c0 -6 -6 -5 -15 2 -8 7 -15 14 -15 16 0 2 7 1 15 -2 8 -4 15 -11 15
-16z m9030 -2 c0 -2 -18 -15 -40 -30 -22 -14 -40 -33 -40 -41 0 -8 -7 -15 -15
-15 -28 0 -14 25 33 56 45 30 62 39 62 30z m-8630 -27 c0 -11 -3 -11 -24 -3
-23 9 -20 23 4 17 11 -3 20 -9 20 -14z m8854 13 c3 -5 -8 -19 -24 -31 -31 -22
-38 -15 -20 20 11 20 35 26 44 11z m-11794 -12 c0 -5 -2 -10 -4 -10 -3 0 -8 5
-11 10 -3 6 -1 10 4 10 6 0 11 -4 11 -10z m1272 -63 c109 -52 149 -80 134 -95
-12 -11 -256 122 -256 140 0 12 2 12 122 -45z m-1063 14 c32 -44 25 -59 -10
-23 -17 18 -36 32 -43 32 -11 0 14 20 26 20 4 0 16 -13 27 -29z m11216 19 c-3
-5 -11 -10 -16 -10 -6 0 -7 5 -4 10 3 6 11 10 16 10 6 0 7 -4 4 -10z m-11517
-67 c6 -20 10 -38 8 -40 -3 -4 -56 92 -56 102 0 20 38 -29 48 -62z m590 47
c18 -11 30 -25 27 -30 -4 -6 -22 1 -43 17 -20 15 -39 28 -41 30 -2 2 2 3 10 3
8 0 29 -9 47 -20z m167 0 c8 -13 -5 -13 -25 0 -13 8 -13 10 2 10 9 0 20 -4 23
-10z m-100 -38 c-3 -3 -11 0 -18 7 -9 10 -8 11 6 5 10 -3 15 -9 12 -12z
m10885 14 c0 -3 -4 -8 -10 -11 -5 -3 -10 -1 -10 4 0 6 5 11 10 11 6 0 10 -2
10 -4z m-8270 -27 c0 -6 -4 -7 -10 -4 -5 3 -10 11 -10 16 0 6 5 7 10 4 6 -3
10 -11 10 -16z m8204 -27 c-4 -4 -9 -2 -11 5 -2 7 -12 10 -21 7 -11 -4 -8 2 8
16 l25 22 3 -22 c2 -12 0 -25 -4 -28z m136 38 c0 -5 -5 -10 -11 -10 -5 0 -7 5
-4 10 3 6 8 10 11 10 2 0 4 -4 4 -10z m-10025 -20 c14 -5 24 -14 20 -20 -6
-10 -29 -4 -60 17 -16 11 -17 13 -3 13 9 0 29 -4 43 -10z m-822 -32 c12 -6 24
-14 27 -18 7 -10 114 -70 125 -70 4 0 2 7 -5 15 -8 9 -8 15 -2 15 6 0 13 -8
16 -18 6 -17 36 -35 114 -69 21 -8 31 -10 27 -3 -4 6 9 4 30 -4 21 -9 39 -16
41 -16 2 0 4 -5 4 -10 0 -6 -14 -4 -32 5 -18 8 -25 10 -14 3 65 -45 105 -81
111 -99 11 -32 0 -33 -51 -5 -25 14 -52 26 -58 26 -17 -1 34 -39 89 -68 27
-14 44 -27 37 -29 -17 -7 -135 50 -193 93 -55 40 -67 67 -15 35 18 -12 39 -21
46 -21 20 0 -5 25 -63 62 -29 18 -53 36 -55 40 -2 5 -12 8 -22 8 -10 0 -22 5
-26 12 -5 8 -1 9 12 4 48 -18 -11 19 -106 67 -57 29 -106 58 -108 65 -4 13 24
5 71 -20z m10969 10 c-7 -7 -12 -8 -12 -2 0 14 12 26 19 19 2 -3 -1 -11 -7
-17z m-8647 2 c3 -5 2 -10 -4 -10 -5 0 -13 5 -16 10 -3 6 -2 10 4 10 5 0 13
-4 16 -10z m-2930 -10 c3 -5 1 -10 -4 -10 -6 0 -11 5 -11 10 0 6 2 10 4 10 3
0 8 -4 11 -10z m885 1 c0 -5 12 -12 28 -16 33 -8 161 -86 186 -114 25 -28 13
-26 -31 3 -19 14 -42 22 -49 19 -8 -3 -16 2 -20 10 -3 9 -11 14 -17 11 -7 -2
-34 13 -61 33 -49 38 -68 63 -47 63 6 0 11 -4 11 -9z m711 -33 c11 -21 11 -21
-20 1 -17 12 -31 27 -31 32 0 16 38 -9 51 -33z m1414 12 c13 -6 15 -9 5 -9 -8
0 -22 4 -30 9 -18 12 -2 12 25 0z m-3015 -20 c0 -5 -2 -10 -4 -10 -3 0 -8 5
-11 10 -3 6 -1 10 4 10 6 0 11 -4 11 -10z m76 -17 c-7 -7 -26 7 -26 19 0 6 6
6 15 -2 9 -7 13 -15 11 -17z m3004 7 c18 -12 2 -12 -25 0 -13 6 -15 9 -5 9 8
0 22 -4 30 -9z m-1380 -32 c32 -22 50 -48 33 -48 -13 0 -89 69 -77 70 6 0 26
-10 44 -22z m-1165 -69 c64 -50 114 -99 101 -99 -20 0 -150 104 -173 139 -19
30 -8 24 72 -40z m2710 51 c3 -5 1 -10 -4 -10 -6 0 -11 5 -11 10 0 6 2 10 4
10 3 0 8 -4 11 -10z m-2524 -25 c19 -13 49 -32 67 -42 18 -9 32 -25 32 -35 0
-26 -7 -23 -64 25 -28 24 -62 51 -76 60 -17 12 -19 17 -9 17 9 0 31 -11 50
-25z m159 10 c7 -8 8 -15 2 -15 -5 0 -15 7 -22 15 -7 8 -8 15 -2 15 5 0 15 -7
22 -15z m2354 -14 c19 -16 116 -43 131 -37 13 5 71 -7 110 -23 37 -15 90 -33
120 -41 42 -10 145 -57 145 -66 0 -9 -125 5 -200 23 -66 16 -71 18 -125 45
-16 9 -54 23 -82 32 -29 10 -55 22 -58 27 -4 5 -14 9 -23 10 -9 0 -39 11 -67
24 l-50 23 43 -3 c23 -2 49 -8 56 -14z m-1920 -69 c204 -106 283 -162 230
-162 -9 0 -31 13 -50 30 -18 16 -87 56 -151 89 -120 61 -198 111 -173 111 7 0
72 -31 144 -68z m-24 -106 c85 -47 146 -86 134 -86 -26 0 -172 74 -252 128
-33 23 -67 40 -74 37 -7 -3 -18 6 -24 20 l-12 24 37 -19 c20 -10 106 -57 191
-104z m-257 107 c-7 -2 -19 -2 -25 0 -7 3 -2 5 12 5 14 0 19 -2 13 -5z m877
-3 c8 -5 12 -11 9 -14 -3 -3 -14 1 -25 9 -21 16 -8 20 16 5z m130 -7 c40 -27
160 -134 160 -143 0 -4 -44 10 -97 31 -93 38 -163 76 -163 91 0 18 20 14 61
-13 63 -42 80 -37 34 11 -40 41 -38 53 5 23z m-1280 -25 c0 -5 -9 -4 -20 2
-11 6 -20 12 -20 14 0 2 9 2 20 -1 11 -3 20 -9 20 -15z m720 -18 c0 -14 -7
-13 -35 6 -35 23 -31 38 5 19 17 -9 30 -20 30 -25z m-904 -31 c11 -19 -29 7
-51 32 l-20 23 32 -23 c18 -12 35 -27 39 -32z m-208 16 c-3 -3 -9 2 -12 12 -6
14 -5 15 5 6 7 -7 10 -15 7 -18z m-78 -6 c0 -6 -4 -7 -10 -4 -5 3 -10 11 -10
16 0 6 5 7 10 4 6 -3 10 -11 10 -16z m415 -9 c16 -16 26 -32 24 -35 -8 -7 -47
23 -59 46 -16 28 2 23 35 -11z m1260 20 c3 -5 2 -10 -4 -10 -5 0 -13 5 -16 10
-3 6 -2 10 4 10 5 0 13 -4 16 -10z m210 0 c3 -5 1 -10 -4 -10 -6 0 -11 5 -11
10 0 6 2 10 4 10 3 0 8 -4 11 -10z m-882 -98 c103 -51 187 -98 187 -104 0 -5
7 -7 15 -4 9 3 18 0 21 -7 2 -6 17 -13 32 -13 15 -1 54 -14 87 -29 49 -22 56
-28 42 -36 -11 -7 -26 -5 -48 6 -29 16 -31 15 -36 -4 -7 -27 -23 -27 -57 0
-14 11 -30 18 -35 15 -18 -12 -192 65 -236 103 -11 10 -28 21 -38 25 -10 3
-24 19 -30 35 -10 29 -47 60 -47 41 0 -5 5 -10 10 -10 6 0 10 -5 10 -12 0 -7
-18 6 -40 27 -35 34 -55 73 -32 63 4 -1 91 -45 195 -96z m268 66 c34 -19 51
-38 34 -38 -15 0 -85 42 -85 50 0 14 8 13 51 -12z m699 -3 c22 -14 40 -27 40
-30 0 -13 -32 -3 -47 15 -10 11 -23 20 -30 20 -6 0 -15 5 -18 10 -11 18 14 11
55 -15z m-1800 5 c0 -5 -4 -10 -9 -10 -6 0 -13 5 -16 10 -3 6 1 10 9 10 9 0
16 -4 16 -10z m1581 -177 c22 -14 39 -27 39 -29 0 -12 -33 -1 -49 15 -11 11
-22 17 -24 14 -3 -2 -20 3 -39 13 -38 19 -178 112 -193 127 -13 14 218 -108
266 -140z m1806 71 c18 -14 42 -28 55 -34 13 -5 16 -9 8 -9 -8 -1 -52 17 -98
39 -45 22 -86 40 -91 40 -5 0 -14 7 -21 15 -18 22 107 -22 147 -51z m-3189 36
c7 -11 11 -20 9 -20 -2 0 -12 9 -22 20 -10 11 -14 20 -9 20 5 0 15 -9 22 -20z
m1432 10 c0 -5 -2 -10 -4 -10 -3 0 -8 5 -11 10 -3 6 -1 10 4 10 6 0 11 -4 11
-10z m1065 0 c13 -5 14 -9 5 -9 -8 0 -24 4 -35 9 -13 5 -14 9 -5 9 8 0 24 -4
35 -9z m-2820 -20 c11 0 32 -8 45 -17 14 -10 29 -18 35 -18 5 0 35 -13 65 -27
76 -37 235 -103 295 -123 27 -9 54 -20 60 -24 5 -5 35 -16 65 -26 30 -9 73
-27 95 -40 22 -12 110 -43 195 -69 85 -26 184 -58 219 -72 35 -13 68 -21 74
-17 6 3 7 1 4 -4 -4 -6 28 -24 78 -44 47 -18 85 -37 85 -42 0 -5 -9 -7 -20 -4
-11 3 -23 1 -26 -4 -3 -5 6 -9 21 -9 14 0 37 -7 51 -16 22 -15 24 -15 18 0 -4
10 -1 16 9 16 18 0 307 -104 347 -125 16 -8 42 -15 57 -14 28 0 28 0 4 10 -13
5 -21 12 -18 15 3 3 18 -1 34 -9 15 -8 46 -20 68 -27 58 -18 125 -49 125 -58
0 -4 21 -14 48 -21 26 -8 73 -22 104 -32 32 -11 65 -19 74 -19 14 0 15 -2 3
-17 -12 -15 -12 -16 6 -8 11 4 33 10 49 13 21 3 25 7 15 14 -10 6 1 8 30 5 24
-3 47 -10 50 -15 3 -5 15 -14 26 -20 19 -11 19 -11 -5 -13 -76 -6 -109 -5
-103 4 3 5 -2 5 -13 -1 -13 -7 -36 -5 -73 4 -30 8 -71 16 -90 18 -43 4 -122
36 -116 46 9 14 -25 20 -113 20 -72 0 -102 6 -172 31 -47 17 -117 34 -156 38
-51 5 -89 17 -133 40 -44 22 -79 33 -119 35 -72 4 -114 20 -106 40 4 11 -4 17
-31 22 -20 3 -39 4 -42 0 -4 -3 -40 12 -82 35 -53 28 -82 38 -99 34 -33 -8
-65 3 -58 21 8 22 -166 105 -204 98 -34 -7 -86 18 -121 58 -14 17 -36 31 -51
31 -14 1 -25 4 -23 8 5 7 -46 33 -140 69 -121 48 -361 188 -381 222 -6 10 -4
11 7 1 7 -7 22 -13 34 -13z m1292 -37 c-3 -2 -16 1 -29 8 -19 8 -24 17 -20 32
5 19 6 19 29 -8 13 -15 22 -29 20 -32z m407 32 c-6 -16 -24 -21 -24 -7 0 11
11 22 21 22 5 0 6 -7 3 -15z m-1409 -6 c11 -17 -1 -21 -15 -4 -8 9 -8 15 -2
15 6 0 14 -5 17 -11z m3245 1 c18 -12 2 -12 -25 0 -13 6 -15 9 -5 9 8 0 22 -4
30 -9z m-2785 -89 c136 -61 173 -81 146 -81 -7 0 -9 -4 -6 -10 8 -14 -220 73
-307 116 -50 25 -63 38 -53 53 7 13 45 -1 220 -78z m622 83 c-3 -3 -12 -4 -19
-1 -8 3 -5 6 6 6 11 1 17 -2 13 -5z m9283 -3 c0 -23 -133 -101 -147 -87 -5 5
125 94 140 95 4 1 7 -3 7 -8z m-9832 -19 c2 -7 -2 -10 -12 -6 -9 3 -16 11 -16
16 0 13 23 5 28 -10z m660 -35 c2 -9 -3 -17 -10 -17 -18 0 -88 48 -88 60 0 17
95 -25 98 -43z m274 18 c6 -14 19 -25 30 -25 10 0 18 -5 18 -11 0 -6 7 -9 15
-5 9 3 35 -9 61 -29 25 -19 42 -35 37 -35 -4 0 -44 15 -87 34 -64 28 -82 41
-92 65 -16 37 1 42 18 6z m-367 -21 c14 -9 25 -20 25 -24 0 -10 -87 37 -95 51
-8 12 37 -5 70 -27z m8965 26 c0 -5 -4 -10 -9 -10 -6 0 -13 5 -16 10 -3 6 1
10 9 10 9 0 16 -4 16 -10z m-9500 -10 c0 -5 -2 -10 -4 -10 -3 0 -8 5 -11 10
-3 6 -1 10 4 10 6 0 11 -4 11 -10z m367 4 c-3 -3 -12 -4 -19 -1 -8 3 -5 6 6 6
11 1 17 -2 13 -5z m1371 -6 c19 -19 14 -30 -8 -18 -11 6 -20 15 -20 20 0 14
14 12 28 -2z m-2258 -8 c0 -5 -7 -7 -15 -4 -8 4 -15 8 -15 10 0 2 7 4 15 4 8
0 15 -4 15 -10z m555 -10 c3 -6 -1 -7 -9 -4 -18 7 -21 14 -7 14 6 0 13 -4 16
-10z m9765 5 c0 -2 -10 -10 -22 -16 -21 -11 -22 -11 -9 4 13 16 31 23 31 12z
m-8760 -15 c20 -12 9 -21 -18 -13 -12 3 -19 9 -16 14 7 11 15 11 34 -1z m1760
0 c12 -8 12 -10 -5 -10 -11 0 -27 5 -35 10 -12 8 -12 10 5 10 11 0 27 -5 35
-10z m-2098 -22 c17 -11 42 -22 57 -23 14 -1 84 -26 155 -54 143 -56 140 -56
130 -39 -4 7 -3 8 5 4 6 -4 9 -11 7 -15 -3 -4 28 -22 69 -40 41 -18 79 -39 86
-47 18 -22 -5 -18 -64 13 -29 14 -68 27 -87 29 -19 1 -72 23 -118 48 -46 25
-89 43 -96 40 -7 -3 -21 4 -31 16 -13 15 -21 17 -31 9 -17 -14 -35 -3 -27 17
4 12 0 14 -21 8 -28 -7 -50 6 -67 38 -13 24 -4 23 33 -4z m1018 12 c0 -5 -2
-10 -4 -10 -3 0 -8 5 -11 10 -3 6 -1 10 4 10 6 0 11 -4 11 -10z m7664 0 c-15
-15 -222 -97 -280 -111 -27 -7 -63 -18 -80 -25 -35 -15 -149 -35 -137 -24 4 4
26 13 48 20 22 7 57 24 79 38 25 17 49 25 67 24 16 -2 29 1 29 6 0 11 55 33
63 25 3 -2 18 3 33 13 43 29 202 58 178 34z m136 -5 c-7 -8 -21 -15 -31 -15
-10 0 -24 -8 -31 -19 -17 -23 -56 -43 -143 -71 -38 -12 -106 -42 -151 -66 -45
-24 -92 -44 -105 -44 l-24 0 25 21 25 20 -25 -6 c-19 -6 -22 -4 -14 5 16 16
88 40 92 30 5 -13 72 12 72 27 0 8 5 11 10 8 14 -9 100 25 100 39 0 6 21 18
48 25 26 8 54 18 62 23 13 7 86 35 99 37 2 1 -2 -6 -9 -14z m-8775 -5 c3 -6
-1 -7 -9 -4 -18 7 -21 14 -7 14 6 0 13 -4 16 -10z m8854 -11 c-16 -10 -23 -4
-14 10 3 6 11 8 17 5 6 -4 5 -9 -3 -15z m-6254 -20 c67 -19 110 -27 114 -21 9
14 61 2 61 -13 0 -8 8 -16 18 -18 9 -3 -1 -5 -23 -6 -97 -2 -305 48 -305 74 0
21 12 19 135 -16z m-1878 15 c-3 -3 -12 -4 -19 -1 -8 3 -5 6 6 6 11 1 17 -2
13 -5z m108 -4 c3 -5 -1 -10 -9 -10 -8 0 -18 5 -21 10 -3 6 1 10 9 10 8 0 18
-4 21 -10z m6765 -64 c-12 -12 -72 -17 -64 -5 11 18 -27 9 -43 -11 -13 -14
-19 -16 -25 -7 -5 8 -8 6 -8 -7 0 -16 -5 -18 -34 -13 -19 3 -36 2 -38 -2 -2
-4 -15 -11 -30 -15 -25 -6 -28 -4 -28 19 0 16 -6 25 -15 25 -18 0 -18 -5 -5
-29 8 -17 4 -18 -65 -13 -52 3 -75 1 -75 -7 0 -7 -37 -11 -119 -11 -66 0 -131
-4 -145 -10 -17 -6 -27 -6 -32 2 -9 13 11 26 64 39 23 6 45 15 48 20 7 12 110
12 151 0 26 -8 32 -6 36 8 4 15 21 19 108 24 96 6 105 5 121 -13 19 -23 28
-25 28 -6 0 15 30 26 75 26 17 0 41 6 55 14 21 11 27 11 38 -2 8 -11 9 -19 2
-26z m-7374 7 c-6 -6 -36 9 -36 18 0 5 9 4 20 -3 10 -7 18 -14 16 -15z m944
17 c0 -5 -2 -10 -4 -10 -3 0 -8 5 -11 10 -3 6 -1 10 4 10 6 0 11 -4 11 -10z
m2127 4 c-3 -3 -12 -4 -19 -1 -8 3 -5 6 6 6 11 1 17 -2 13 -5z m-658 -33 c50
-10 91 -16 91 -12 0 3 4 1 8 -4 4 -6 18 -16 32 -23 22 -11 19 -12 -27 -7 -74
8 -206 48 -211 64 -3 8 0 11 6 7 6 -3 51 -15 101 -25z m4011 -3 c0 -13 -43 -6
-47 8 -2 7 6 10 22 7 14 -3 25 -10 25 -15z m175 12 c-3 -5 -12 -10 -20 -10 -8
0 -17 5 -20 10 -4 6 5 10 20 10 15 0 24 -4 20 -10z m-7218 -17 c3 -7 -3 -9
-17 -6 -29 8 -37 25 -9 21 12 -1 24 -8 26 -15z m396 -8 c20 -10 37 -22 37 -26
0 -12 -84 28 -89 42 -4 13 -4 12 52 -16z m697 15 c0 -5 -2 -10 -4 -10 -3 0 -8
5 -11 10 -3 6 -1 10 4 10 6 0 11 -4 11 -10z m2258 4 c32 -9 27 -26 -5 -18 -32
8 -55 24 -32 24 7 0 24 -3 37 -6z m385 -5 c-8 -8 -16 -8 -30 0 -16 9 -14 10
12 11 21 0 26 -3 18 -11z m309 -1 c-8 -8 -23 -8 -54 -1 l-43 11 55 1 c41 1 51
-2 42 -11z m-3192 -12 c0 -3 -4 -8 -10 -11 -5 -3 -10 -1 -10 4 0 6 5 11 10 11
6 0 10 -2 10 -4z m-737 -58 c49 -29 85 -54 79 -56 -8 -2 -158 84 -181 104 -19
17 27 -5 102 -48z m402 41 c12 -19 -5 -23 -22 -6 -16 16 -16 17 -1 17 9 0 20
-5 23 -11z m-765 -9 c0 -5 -2 -10 -4 -10 -3 0 -8 5 -11 10 -3 6 -1 10 4 10 6
0 11 -4 11 -10z m4010 0 c0 -5 -13 -10 -29 -10 -17 0 -33 5 -36 10 -4 6 8 10
29 10 20 0 36 -4 36 -10z m53 3 c-7 -2 -19 -2 -25 0 -7 3 -2 5 12 5 14 0 19
-2 13 -5z m-4573 -31 c34 -14 9 -15 -45 -1 -25 6 -42 15 -40 19 5 9 38 1 85
-18z m4063 21 c-7 -2 -19 -2 -25 0 -7 3 -2 5 12 5 14 0 19 -2 13 -5z m5762 -2
c-3 -5 -21 -15 -41 -21 -28 -10 -38 -9 -47 0 -9 10 -9 12 3 8 8 -3 31 1 50 8
19 7 36 13 38 13 2 1 1 -3 -3 -8z m-8019 -31 c57 -18 70 -27 67 -40 -4 -15
-15 -12 -81 22 -74 39 -103 57 -72 46 8 -3 47 -16 86 -28z m5489 15 l30 -14
-40 5 c-22 3 -51 7 -65 10 -14 2 -31 0 -39 -5 -9 -6 3 -11 39 -16 38 -5 49
-10 41 -18 -15 -15 -84 -11 -118 7 l-28 15 35 15 c44 19 106 19 145 1z m700 6
l20 -8 -20 -6 c-31 -9 -135 -20 -135 -14 0 28 16 37 64 36 28 0 60 -4 71 -8z
m690 -1 c-3 -5 -21 -10 -38 -10 -24 0 -28 3 -17 10 20 13 63 13 55 0z m1015
-10 c-8 -6 -22 -10 -30 -9 -9 0 -5 6 10 14 27 14 44 10 20 -5z m-9297 -17 c45
-41 -7 -30 -58 12 -19 16 -19 16 10 10 17 -4 38 -14 48 -22z m1667 17 c8 -5
11 -12 7 -16 -4 -4 -15 0 -24 9 -18 18 -8 23 17 7z m4175 -9 c-7 -12 -109 -25
-130 -17 -34 13 -1 26 66 26 41 0 68 -4 64 -9z m1575 -6 c10 -13 9 -15 -9 -15
-11 0 -21 4 -21 9 0 5 -8 12 -17 14 -12 3 -9 5 8 6 15 0 32 -6 39 -14z m-7085
-13 c-3 -3 -11 0 -18 7 -9 10 -8 11 6 5 10 -3 15 -9 12 -12z m659 3 c20 -8 36
-17 36 -20 0 -4 -80 24 -89 32 -11 8 20 1 53 -12z m3259 8 c-7 -2 -21 -2 -30
0 -10 3 -4 5 12 5 17 0 24 -2 18 -5z m2797 -2 c0 -5 17 -7 39 -4 24 3 41 1 46
-6 5 -9 -9 -11 -51 -9 -35 2 -59 8 -62 16 -2 6 3 12 12 12 9 0 16 -4 16 -9z
m1990 -12 c0 -5 -9 -9 -19 -9 -11 0 -23 -4 -26 -10 -4 -6 5 -10 21 -10 36 0
26 -8 -43 -36 -69 -28 -69 -28 -53 -9 7 8 19 15 26 15 8 0 14 5 14 10 0 6 -4
10 -10 10 -5 0 -10 5 -10 10 0 6 7 10 16 10 9 0 27 9 41 20 25 19 43 19 43 -1z
m-4994 -16 c-10 -10 -19 5 -10 18 6 11 8 11 12 0 2 -7 1 -15 -2 -18z m2435 12
c-1 -15 -24 -12 -29 3 -3 9 2 13 12 10 10 -1 17 -7 17 -13z m-2091 -5 c-8 -5
-26 -10 -40 -10 -20 0 -22 2 -10 10 8 5 26 10 40 10 20 0 22 -2 10 -10z m4190
-4 c-19 -8 -39 -11 -45 -7 -5 3 4 9 20 12 50 11 62 8 25 -5z m636 -1 c-22 -17
-36 -19 -36 -7 0 14 12 22 34 22 21 -1 21 -1 2 -15z m-8110 -10 c10 -8 15 -14
9 -14 -5 0 -19 6 -29 14 -11 8 -15 15 -10 15 6 0 19 -7 30 -15z m3694 0 c0
-10 -10 -15 -30 -15 -29 0 -38 9 -23 23 13 13 53 7 53 -8z m1090 7 c0 -5 -6
-15 -14 -21 -7 -6 -16 -25 -19 -41 -5 -23 -14 -31 -44 -39 -21 -6 -51 -10 -68
-10 -26 2 -25 3 10 9 31 6 34 7 13 9 -47 2 -34 29 17 37 45 6 46 7 20 20 -41
21 -46 25 -41 33 7 11 126 14 126 3z m2125 -2 c3 -5 -2 -10 -12 -11 -16 0 -16
-1 2 -9 11 -5 15 -9 8 -9 -6 -1 -19 -4 -29 -8 -13 -5 -15 -3 -9 8 5 8 0 7 -12
-4 -17 -15 -35 -17 -99 -15 l-79 3 70 13 c38 7 74 17 80 22 5 4 21 10 35 13
14 2 28 5 32 6 4 0 10 -3 13 -9z m-7010 -10 c3 -5 2 -10 -4 -10 -5 0 -13 5
-16 10 -3 6 -2 10 4 10 5 0 13 -4 16 -10z m322 -4 c-5 -14 30 -36 58 -36 15 0
30 -18 22 -26 -3 -3 -20 1 -39 9 -55 23 -89 67 -52 67 10 0 14 -6 11 -14z
m250 -19 c16 -15 20 -26 13 -37 -8 -12 -11 -12 -28 3 -10 9 -32 21 -48 27 -17
6 -31 18 -31 26 0 22 66 9 94 -19z m3511 24 c10 -6 7 -10 -12 -13 -25 -5 -33
1 -19 15 8 9 15 9 31 -2z m236 -7 c10 -26 7 -52 -6 -56 -7 -3 -35 5 -63 18
-44 20 -47 23 -22 23 15 1 30 8 33 16 8 20 50 19 58 -1z m277 6 c5 0 9 -10 9
-23 0 -12 7 -33 16 -45 14 -20 14 -22 -1 -22 -20 0 -83 41 -90 60 -7 17 24 43
43 35 8 -3 18 -5 23 -5z m1346 4 c-3 -3 -12 -4 -19 -1 -8 3 -5 6 6 6 11 1 17
-2 13 -5z m1527 -5 c-9 -16 -83 -45 -134 -54 -62 -10 -45 2 47 36 88 32 97 33
87 18z m-6539 -23 c24 -16 33 -36 16 -36 -23 0 -73 24 -81 40 -8 14 -5 17 16
14 14 -1 36 -10 49 -18z m2125 8 c0 -2 -7 -4 -15 -4 -8 0 -15 4 -15 10 0 5 7
7 15 4 8 -4 15 -8 15 -10z m1681 0 c12 -15 11 -16 -7 -10 -15 4 -24 2 -28 -9
-3 -9 0 -15 9 -15 8 0 15 -4 15 -10 0 -5 -7 -10 -15 -10 -8 0 -15 -4 -15 -10
0 -5 -5 -10 -11 -10 -7 0 -9 9 -5 23 4 16 -1 26 -15 35 -11 7 -17 17 -14 22
10 16 71 11 86 -6z m1119 2 c-6 -9 -19 -12 -28 -8 -17 6 -14 7 37 21 2 1 -2
-5 -9 -13z m1990 10 c0 -2 -9 -6 -20 -9 -11 -3 -18 -1 -14 4 5 9 34 13 34 5z
m-8156 -59 c56 -29 109 -52 119 -49 9 2 20 -4 23 -12 3 -9 10 -14 14 -11 12 7
224 -108 228 -123 4 -21 -22 -13 -84 24 -109 68 -145 86 -152 80 -3 -4 0 -11
8 -16 13 -8 13 -10 -2 -10 -9 0 -38 17 -65 39 -27 21 -60 42 -74 46 -34 11
-147 85 -130 85 8 0 60 -24 115 -53z m7570 32 c-10 -4 -26 -8 -34 -8 -12 0
-11 3 3 14 11 7 26 11 35 8 13 -6 13 -8 -4 -14z m-7087 -13 c23 0 45 -5 50
-10 5 -5 -6 -6 -27 -2 -33 6 -33 6 -15 -9 19 -16 19 -16 -10 -11 -29 5 -29 5
5 -11 19 -9 30 -18 23 -20 -16 -6 -75 26 -68 37 3 4 -11 14 -30 20 -19 6 -35
15 -35 20 0 5 15 4 33 -2 17 -6 51 -11 74 -12z m458 13 c4 -6 12 -8 19 -6 6 3
23 -5 36 -16 18 -14 19 -18 7 -14 -10 4 -28 7 -40 7 -12 0 -33 9 -47 20 -25
19 -25 20 -3 20 12 0 25 -5 28 -11z m3130 1 c3 -5 1 -10 -4 -10 -6 0 -11 5
-11 10 0 6 2 10 4 10 3 0 8 -4 11 -10z m1738 3 c-7 -2 -19 -2 -25 0 -7 3 -2 5
12 5 14 0 19 -2 13 -5z m2402 -3 c-3 -5 -15 -10 -26 -10 -11 0 -17 5 -14 10 3
6 15 10 26 10 11 0 17 -4 14 -10z m-8115 -10 c0 -5 -2 -10 -4 -10 -3 0 -8 5
-11 10 -3 6 -1 10 4 10 6 0 11 -4 11 -10z m712 -15 c37 -17 53 -31 54 -45 2
-25 0 -25 -36 2 -16 11 -26 26 -23 31 3 6 1 7 -5 3 -11 -6 -72 19 -72 29 0 11
31 3 82 -20z m582 19 c17 -6 22 -24 8 -24 -5 0 -17 7 -28 15 -19 15 -8 20 20
9z m3871 -34 c-9 -15 -22 -12 -29 6 -9 24 3 36 20 19 9 -8 12 -19 9 -25z
m2785 31 c0 -5 -7 -12 -16 -15 -22 -9 -24 -8 -24 9 0 8 9 15 20 15 11 0 20 -4
20 -9z m83 -16 c1 -5 -6 -11 -15 -13 -11 -2 -18 3 -18 13 0 17 30 18 33 0z
m-6707 -25 c3 0 3 7 0 16 -5 13 -1 15 16 11 13 -3 51 -11 85 -17 45 -9 60 -16
56 -26 -3 -8 -14 -14 -24 -14 -10 0 -19 -7 -19 -15 0 -8 -7 -15 -15 -15 -11 0
-15 8 -13 28 3 24 -1 27 -29 30 -29 3 -33 1 -30 -20 1 -13 7 -26 12 -30 6 -4
-5 -8 -23 -8 -23 0 -32 4 -29 13 2 6 11 11 18 9 10 -2 11 0 4 7 -6 6 -25 14
-43 17 -26 5 -32 3 -32 -10 0 -10 -4 -14 -10 -11 -14 8 -13 38 1 52 9 9 19 8
40 -3 15 -7 31 -14 35 -14z m4119 20 c3 -5 2 -10 -4 -10 -5 0 -13 5 -16 10 -3
6 -2 10 4 10 5 0 13 -4 16 -10z m2455 -24 c29 2 58 8 66 15 7 6 18 7 25 3 8
-5 7 -9 -5 -16 -9 -5 -13 -14 -10 -20 4 -7 2 -8 -5 -4 -6 4 -26 3 -44 -3 -33
-11 -138 -24 -194 -23 -23 0 -30 -3 -26 -14 9 -24 -23 -26 -65 -5 l-40 20 -36
-24 c-20 -13 -36 -20 -36 -15 0 5 -13 5 -30 -1 -37 -13 -120 8 -85 22 11 4 37
8 58 8 25 1 37 6 37 15 0 19 48 33 141 41 41 3 100 12 130 19 48 10 55 10 61
-4 5 -13 17 -16 58 -14z m-4435 14 c3 -5 1 -10 -4 -10 -6 0 -11 5 -11 10 0 6
2 10 4 10 3 0 8 -4 11 -10z m2595 6 c0 -11 -19 -15 -25 -6 -3 5 1 10 9 10 9 0
16 -2 16 -4z m853 -3 c-7 -2 -21 -2 -30 0 -10 3 -4 5 12 5 17 0 24 -2 18 -5z
m1182 -2 c-3 -5 -19 -12 -35 -16 -16 -4 -32 -11 -35 -16 -4 -5 -13 -9 -22 -9
-13 0 -13 3 -3 15 18 22 108 46 95 26z m-8275 -11 c13 -9 13 -10 0 -10 -8 0
-22 5 -30 10 -13 9 -13 10 0 10 8 0 22 -5 30 -10z m770 -22 c0 -5 -7 -11 -15
-14 -18 -7 -68 23 -60 36 6 10 75 -10 75 -22z m533 17 c-3 -17 -30 -17 -37 0
-4 13 -1 16 17 13 12 -2 21 -7 20 -13z m3582 5 c-3 -5 -14 -10 -23 -10 -15 0
-15 2 -2 10 20 13 33 13 25 0z m1865 -10 c0 -5 -10 -10 -22 -10 -13 0 -41 -3
-63 -6 -35 -5 -38 -4 -23 9 20 16 108 22 108 7z m-6090 -10 c8 -5 11 -10 5
-10 -5 0 -17 5 -25 10 -8 5 -10 10 -5 10 6 0 17 -5 25 -10z m2270 0 c0 -5 -2
-10 -4 -10 -3 0 -8 5 -11 10 -3 6 -1 10 4 10 6 0 11 -4 11 -10z m-1926 -30
c-12 -12 -44 -3 -44 11 0 4 7 6 15 3 9 -4 15 -1 15 7 0 10 3 10 12 1 8 -8 9
-15 2 -22z m153 -12 c102 -37 114 -43 88 -48 l-30 -6 40 -13 c22 -7 44 -17 50
-22 5 -5 -19 0 -53 12 -34 11 -60 25 -57 29 3 4 -4 6 -15 3 -12 -3 -45 11 -91
41 -40 25 -68 46 -61 46 6 0 64 -19 129 -42z m24 26 c12 -14 11 -16 -5 -13
-11 2 -21 10 -24 17 -5 17 13 15 29 -4z m139 -4 c0 -5 -7 -7 -15 -4 -8 4 -12
10 -9 15 6 11 24 2 24 -11z m155 10 c3 -5 1 -10 -4 -10 -6 0 -11 5 -11 10 0 6
2 10 4 10 3 0 8 -4 11 -10z m105 0 c0 -5 -5 -10 -11 -10 -5 0 -7 5 -4 10 3 6
8 10 11 10 2 0 4 -4 4 -10z m4930 -5 c0 -21 -30 -31 -41 -14 -6 10 -2 16 14
21 12 3 23 6 25 7 1 1 2 -6 2 -14z m85 5 c3 -5 -1 -10 -10 -10 -9 0 -13 5 -10
10 3 6 8 10 10 10 2 0 7 -4 10 -10z m-5944 -17 c13 -15 12 -15 -8 -4 -24 12
-29 21 -14 21 5 0 15 -7 22 -17z m180 -4 c11 -11 19 -24 17 -30 -4 -11 -68 27
-68 41 0 17 29 11 51 -11z m519 -19 c-8 -15 -15 -19 -22 -12 -7 7 -6 17 2 32
8 15 15 19 22 12 7 -7 6 -17 -2 -32z m363 26 c3 -8 18 -16 34 -18 18 -2 27 -8
26 -18 -2 -10 17 -23 57 -39 32 -13 61 -30 64 -37 3 -8 11 -14 18 -14 9 0 9 3
-2 11 -12 8 -10 9 10 5 14 -4 37 -9 53 -12 25 -6 39 -24 17 -24 -5 0 -10 -6
-10 -14 0 -23 -23 -25 -49 -4 -13 10 -55 28 -93 39 -64 20 -104 50 -92 71 3 4
-1 10 -8 13 -68 24 -69 25 -56 40 17 18 24 19 31 1z m-1623 -28 c0 -6 -6 -5
-15 2 -8 7 -15 14 -15 16 0 2 7 1 15 -2 8 -4 15 -11 15 -16z m1164 7 c15 -11
16 -15 5 -15 -8 0 -24 7 -35 15 -14 11 -15 14 -4 14 8 0 24 -6 34 -14z m142 0
c-22 -17 -36 -19 -36 -7 0 14 12 22 34 22 21 -1 21 -1 2 -15z m-336 -5 c13 -8
13 -10 -2 -10 -9 0 -20 5 -23 10 -8 13 5 13 25 0z m-393 -6 c-3 -3 -12 -4 -19
-1 -8 3 -5 6 6 6 11 1 17 -2 13 -5z m4833 -3 c0 -33 -91 -39 -104 -6 -4 12 5
15 49 15 30 0 55 -4 55 -9z m-4620 -48 c75 -36 83 -55 13 -33 -65 21 -153 62
-153 72 0 16 60 -1 140 -39z m1180 31 c42 -17 55 -44 20 -41 -11 1 -20 4 -20
8 0 4 -14 12 -30 19 -17 7 -33 17 -36 21 -8 14 22 11 66 -7z m3590 6 c0 -5 -5
-10 -11 -10 -7 0 -18 -8 -24 -17 -13 -17 -14 -17 -33 0 -15 14 -21 15 -24 5
-4 -11 -8 -10 -21 1 -9 7 -14 17 -11 22 7 12 124 11 124 -1z m175 0 c3 -5 -1
-10 -9 -10 -9 0 -16 5 -16 10 0 6 4 10 9 10 6 0 13 -4 16 -10z m-4865 -22 c0
-6 -7 -7 -16 -4 -9 3 -18 6 -20 6 -3 0 -3 4 1 10 7 11 35 2 35 -12z m-504 -13
c16 -12 16 -14 3 -15 -9 0 -22 7 -29 15 -16 19 0 19 26 0z m4798 -17 c-7 -10
-54 -10 -54 0 0 4 5 13 11 19 13 13 52 -5 43 -19z m-4204 2 c0 -5 -4 -10 -9
-10 -6 0 -13 5 -16 10 -3 6 1 10 9 10 9 0 16 -4 16 -10z m5525 5 c-25 -8 -115
-11 -115 -4 0 5 28 9 63 8 34 0 58 -2 52 -4z m-1271 -14 c4 -5 -3 -7 -14 -4
-23 6 -26 13 -6 13 8 0 17 -4 20 -9z m-3919 -72 c110 -34 202 -65 205 -69 3
-4 19 -7 35 -8 17 0 55 -10 85 -22 36 -14 67 -20 88 -16 20 3 51 -2 75 -12
l42 -16 -35 -8 c-19 -4 -53 -5 -75 -2 l-40 4 30 -14 c17 -9 45 -18 63 -22 17
-3 32 -10 32 -15 0 -15 -52 -10 -127 12 -76 23 -98 44 -38 37 23 -3 36 1 40
10 3 9 0 12 -9 9 -8 -3 -68 12 -133 34 -65 23 -137 42 -160 44 -23 2 -50 8
-60 13 -10 5 -43 15 -73 22 -30 7 -62 19 -70 27 -8 8 -37 25 -65 39 -63 30
-53 28 190 -47z m4935 56 c0 -8 -7 -15 -15 -15 -16 0 -20 12 -8 23 11 12 23 8
23 -8z m56 6 c-3 -5 -15 -7 -26 -4 -28 7 -25 13 6 13 14 0 23 -4 20 -9z
m-5269 -7 c-3 -3 -12 -4 -19 -1 -8 3 -5 6 6 6 11 1 17 -2 13 -5z m1144 -6 c22
-6 39 -15 39 -21 0 -5 -7 -6 -16 -3 -9 3 -21 6 -28 6 -14 0 -56 29 -42 30 5 0
26 -5 47 -12z m4526 6 c-3 -3 -12 -4 -19 -1 -8 3 -5 6 6 6 11 1 17 -2 13 -5z
m-217 -14 c-8 -5 -22 -9 -30 -9 -10 0 -8 3 5 9 27 12 43 12 25 0z m493 -11
c-4 -12 -11 -18 -20 -15 -8 3 -20 6 -26 7 -9 0 31 23 50 29 0 0 -1 -9 -4 -21z
m165 9 c19 -19 14 -28 -18 -28 -23 0 -30 4 -30 20 0 23 29 27 48 8z m-6543
-36 c-6 -7 -35 18 -35 31 0 5 9 2 20 -8 11 -10 18 -20 15 -23z m1085 18 c0 -5
-4 -10 -9 -10 -6 0 -13 5 -16 10 -3 6 1 10 9 10 9 0 16 -4 16 -10z m330 0 c0
-5 7 -10 15 -10 8 0 15 -4 15 -10 0 -11 -6 -12 -37 -4 -26 7 -32 34 -8 34 8 0
15 -4 15 -10z m4760 -10 c-20 -13 -77 -13 -85 0 -4 6 14 10 47 10 38 0 49 -3
38 -10z m-4705 -20 c3 -5 1 -10 -4 -10 -6 0 -11 5 -11 10 0 6 2 10 4 10 3 0 8
-4 11 -10z m3722 -2 c-2 -7 -13 -11 -23 -9 -10 3 -82 4 -159 4 -86 0 -126 2
-105 7 19 4 93 8 163 9 99 1 128 -2 124 -11z m993 2 c0 -5 -4 -10 -10 -10 -5
0 -10 5 -10 10 0 6 5 10 10 10 6 0 10 -4 10 -10z m-5720 -16 c0 -2 -7 -4 -15
-4 -8 0 -15 4 -15 10 0 5 7 7 15 4 8 -4 15 -8 15 -10z m1355 -4 c3 -5 1 -10
-4 -10 -6 0 -11 5 -11 10 0 6 2 10 4 10 3 0 8 -4 11 -10z m2958 3 c-7 -2 -19
-2 -25 0 -7 3 -2 5 12 5 14 0 19 -2 13 -5z m-4618 -13 c8 -13 -5 -13 -25 0
-13 8 -13 10 2 10 9 0 20 -4 23 -10z m1100 -15 c98 -26 146 -44 115 -45 -8 0
-42 7 -75 15 -78 19 -86 19 -78 -2 4 -11 -9 -6 -40 17 -26 18 -47 35 -47 37 0
7 34 2 125 -22z m172 13 c4 -7 8 -29 8 -48 1 -19 5 -45 9 -57 6 -19 11 -21 26
-13 15 8 21 6 29 -7 6 -10 11 -12 11 -5 0 20 48 14 64 -10 20 -28 17 -30 -23
-18 -21 6 -40 6 -51 0 -12 -6 -29 -3 -55 10 -21 11 -43 21 -49 23 -8 3 -7 8 1
19 7 8 10 18 6 21 -3 4 -2 7 4 7 15 0 11 33 -5 45 -7 6 -10 18 -6 28 7 20 20
22 31 5z m428 2 c3 -5 2 -10 -4 -10 -5 0 -13 5 -16 10 -3 6 -2 10 4 10 5 0 13
-4 16 -10z m4365 -4 c0 -2 -7 -6 -15 -10 -8 -3 -15 -1 -15 4 0 6 7 10 15 10 8
0 15 -2 15 -4z m-6070 -20 c0 -11 -19 -15 -25 -6 -3 5 1 10 9 10 9 0 16 -2 16
-4z m1470 -32 c0 -2 -7 -4 -15 -4 -8 0 -15 4 -15 10 0 5 7 7 15 4 8 -4 15 -8
15 -10z m-737 -13 c91 -22 106 -31 50 -31 -45 0 -139 26 -148 40 -8 14 8 12
98 -9z m-358 -49 c-19 -4 -57 26 -49 39 3 5 19 -1 35 -14 24 -17 27 -23 14
-25z m1135 34 c0 -11 -19 -15 -25 -6 -3 5 1 10 9 10 9 0 16 -2 16 -4z m58 -18
c8 -8 9 -15 0 -25 -9 -11 -13 -10 -24 4 -7 10 -14 21 -14 26 0 11 25 8 38 -5z
m279 6 c-3 -3 -12 -4 -19 -1 -8 3 -5 6 6 6 11 1 17 -2 13 -5z m-1177 -34 c0
-13 -11 -13 -30 0 -12 8 -11 10 8 10 12 0 22 -4 22 -10z m1025 0 c3 -5 0 -10
-7 -10 -7 0 1 -11 17 -25 22 -18 26 -24 13 -25 -19 0 -68 42 -68 59 0 14 37
15 45 1z m113 -2 c9 -9 12 -9 12 1 0 11 3 11 15 1 21 -17 19 -40 -4 -40 -33 0
-51 11 -51 31 0 22 11 24 28 7z m-1697 -18 c13 -10 18 -19 12 -20 -7 0 -13 4
-13 8 0 5 -12 13 -27 19 -17 6 -21 11 -12 12 9 1 27 -8 40 -19z m213 5 c21
-16 15 -18 -21 -9 -13 4 -23 10 -23 15 0 13 23 10 44 -6z m1651 5 c3 -5 1 -10
-4 -10 -6 0 -11 5 -11 10 0 6 2 10 4 10 3 0 8 -4 11 -10z m-455 -42 c0 -11
-42 -9 -60 2 -12 8 -9 10 13 10 15 0 27 6 27 13 0 13 20 -12 20 -25z m585 22
c3 -5 -1 -10 -9 -10 -8 0 -18 5 -21 10 -3 6 1 10 9 10 8 0 18 -4 21 -10z
m-922 -21 c9 -6 15 -14 12 -20 -4 -5 -1 -9 4 -9 6 0 11 -5 11 -10 0 -7 -6 -7
-17 -1 -10 5 -39 17 -66 26 -26 9 -44 21 -41 27 7 11 67 2 97 -13z m727 11
c20 -13 10 -19 -22 -13 -15 3 -25 9 -22 14 7 12 25 11 44 -1z m-1428 -7 c-6
-2 -10 -9 -6 -14 3 -5 -4 -9 -15 -9 -29 0 -35 18 -9 23 32 6 45 6 30 0z m142
-24 c-8 -13 -24 -1 -24 18 0 13 3 13 15 3 8 -7 12 -16 9 -21z m1439 10 c20 -5
37 -14 37 -19 0 -8 -33 -6 -109 9 -19 4 -37 13 -39 20 -5 14 28 11 111 -10z
m134 15 c-3 -3 -12 -4 -19 -1 -8 3 -5 6 6 6 11 1 17 -2 13 -5z m51 -12 c2 -7
-2 -10 -12 -6 -9 3 -16 11 -16 16 0 13 23 5 28 -10z m-1708 -2 c8 -5 11 -12 8
-15 -4 -4 -17 0 -30 9 -24 17 -5 23 22 6z m1596 -5 c14 -11 15 -14 4 -14 -8 0
-24 6 -34 14 -15 11 -16 15 -5 15 8 0 24 -7 35 -15z m304 -7 c0 -6 -7 -7 -16
-4 -9 3 -18 6 -20 6 -3 0 -3 4 1 10 7 11 35 2 35 -12z m111 12 c23 -13 26 -60
4 -60 -9 0 -19 8 -22 18 -4 9 -13 21 -20 25 -14 9 -9 27 8 27 6 0 19 -5 30
-10z m-2286 -20 c3 -5 1 -10 -4 -10 -6 0 -11 5 -11 10 0 6 2 10 4 10 3 0 8 -4
11 -10z m139 -10 c36 0 44 -3 40 -15 -10 -26 -144 -16 -144 10 0 18 21 24 42
14 9 -5 37 -9 62 -9z m248 -2 c-6 -6 -15 -8 -19 -4 -4 4 -1 11 7 16 19 12 27
3 12 -12z m2046 5 c2 -8 -6 -13 -23 -13 -21 0 -26 -4 -21 -17 6 -15 5 -16 -11
-1 -10 9 -28 19 -41 23 -12 3 -20 11 -16 16 8 14 107 7 112 -8z m-2603 -3 c3
-5 1 -10 -4 -10 -6 0 -11 5 -11 10 0 6 2 10 4 10 3 0 8 -4 11 -10z m2100 0 c3
-5 -1 -10 -9 -10 -8 0 -18 5 -21 10 -3 6 1 10 9 10 8 0 18 -4 21 -10z m-1425
-7 c0 -5 -4 -14 -9 -21 -6 -10 -10 -9 -14 7 -3 14 0 21 9 21 8 0 14 -3 14 -7z
m817 -7 c11 -10 -5 -19 -42 -22 -19 -1 -33 2 -29 7 3 5 0 9 -5 9 -6 0 -11 5
-11 11 0 12 75 7 87 -5z m3980 8 c-3 -3 -12 -4 -19 -1 -8 3 -5 6 6 6 11 1 17
-2 13 -5z m-4867 -14 c0 -5 -5 -10 -11 -10 -5 0 -7 5 -4 10 3 6 8 10 11 10 2
0 4 -4 4 -10z m1179 4 c17 -4 28 -10 25 -15 -6 -11 -78 -12 -114 -2 l-25 7 25
7 c34 10 52 10 89 3z m1695 -7 c14 -8 23 -16 20 -20 -3 -3 8 -8 25 -12 17 -4
29 -11 25 -16 -7 -11 -62 -11 -89 1 -19 9 -19 9 2 16 29 8 19 26 -10 19 -12
-3 -31 1 -42 9 -19 15 -19 15 11 16 18 0 43 -6 58 -13z m-2644 -7 c0 -5 -2
-10 -4 -10 -3 0 -8 5 -11 10 -3 6 -1 10 4 10 6 0 11 -4 11 -10z m749 -4 c9
-11 8 -15 -5 -20 -24 -9 -36 -7 -28 5 4 8 0 9 -15 4 -20 -6 -28 4 -14 18 11
12 50 8 62 -7z m297 -23 c-3 -3 -17 -2 -33 1 -20 6 -23 10 -13 16 14 9 57 -7
46 -17z m1014 7 c0 -11 -4 -20 -10 -20 -5 0 -10 6 -10 14 0 8 -6 17 -12 19 -7
3 -3 6 10 6 16 1 22 -5 22 -19z m200 0 c0 -5 -5 -10 -11 -10 -5 0 -7 5 -4 10
3 6 8 10 11 10 2 0 4 -4 4 -10z m-1780 -10 c0 -12 -17 -12 -45 0 -17 7 -15 9
13 9 17 1 32 -3 32 -9z m440 0 c8 -5 12 -12 9 -15 -8 -8 -39 5 -39 16 0 11 11
11 30 -1z m-770 -41 c0 -5 -9 -9 -20 -9 -19 0 -27 20 -13 33 7 8 33 -11 33
-24z m1610 21 c0 -5 -4 -10 -9 -10 -6 0 -13 5 -16 10 -3 6 1 10 9 10 9 0 16
-4 16 -10z m160 0 c0 -5 -18 -10 -41 -10 -24 0 -38 4 -34 10 3 6 22 10 41 10
19 0 34 -4 34 -10z m205 0 c3 -5 2 -10 -4 -10 -5 0 -13 5 -16 10 -3 6 -2 10 4
10 5 0 13 -4 16 -10z m451 -25 c-3 -9 -10 -13 -16 -10 -6 4 -5 11 3 20 15 16
22 11 13 -10z m-2036 5 c0 -6 -11 -8 -27 -4 -40 10 -41 14 -5 14 18 0 32 -5
32 -10z m1855 0 c19 -8 19 -9 -2 -9 -12 -1 -25 4 -28 9 -7 12 2 12 30 0z m75
-6 c0 -2 -12 -4 -27 -4 -21 0 -24 3 -14 9 13 8 41 5 41 -5z m-580 -4 c-8 -5
-29 -10 -47 -10 -17 0 -35 -4 -38 -10 -9 -15 -35 -12 -35 4 0 11 15 16 53 19
28 2 59 4 67 5 13 2 13 1 0 -8z m115 0 c-3 -5 -11 -10 -16 -10 -6 0 -7 5 -4
10 3 6 11 10 16 10 6 0 7 -4 4 -10z m310 -28 c-7 -7 -65 19 -65 29 0 5 16 1
35 -8 19 -9 33 -19 30 -21z m-706 11 c-7 -10 -15 -20 -16 -22 -2 -2 -3 5 -3
17 0 14 6 22 16 22 14 0 15 -3 3 -17z m74 -3 c-6 -23 -23 -27 -23 -6 0 8 -8
17 -17 19 -10 3 -4 5 14 6 26 1 30 -2 26 -19z m840 13 c-7 -2 -19 -2 -25 0 -7
3 -2 5 12 5 14 0 19 -2 13 -5z m367 -6 c0 -9 -18 -12 -72 -9 -109 6 -119 21
-15 22 64 0 87 -3 87 -13z m-1552 -14 c28 -3 52 -10 52 -15 0 -7 -55 -8 -160
-3 -144 7 -160 6 -160 -9 0 -21 -12 -20 -43 4 -18 15 -40 20 -80 20 -31 0 -59
5 -63 11 -5 9 46 10 197 5 112 -4 228 -9 257 -13z m1652 -3 c0 -5 -7 -10 -15
-10 -8 0 -15 5 -15 10 0 6 7 10 15 10 8 0 15 -4 15 -10z m605 0 c3 -5 39 -10
78 -11 l72 -1 -70 -13 c-101 -18 -205 -26 -205 -15 0 5 12 11 28 13 15 2 0 2
-33 0 -75 -6 -64 8 18 23 82 15 105 16 112 4z m-1085 -26 c0 -2 -9 -4 -20 -4
-11 0 -20 4 -20 9 0 5 9 7 20 4 11 -3 20 -7 20 -9z m694 8 c31 -17 -97 -30
-153 -15 -23 6 -23 7 -5 14 21 8 144 9 158 1z m-1685 -10 c23 14 34 8 25 -16
-7 -18 -69 -23 -79 -6 -11 17 5 32 20 20 10 -8 19 -8 34 2z m568 2 c-3 -3 -12
-4 -19 -1 -8 3 -5 6 6 6 11 1 17 -2 13 -5z m-362 -14 c15 -6 7 -9 -30 -9 -36
-1 -46 2 -35 9 18 12 38 12 65 0z m-798 -11 c-11 -7 -32 -7 -60 -1 l-42 10 60
1 c46 0 56 -2 42 -10z m1203 3 c0 -4 -23 -13 -50 -18 -38 -8 -53 -8 -61 2 -7
8 -6 14 3 17 21 9 108 8 108 -1z m-772 -19 c-10 -2 -26 -2 -35 0 -10 3 -2 5
17 5 19 0 27 -2 18 -5z m1812 -3 c0 -5 -9 -10 -21 -10 -11 0 -17 5 -14 10 3 6
13 10 21 10 8 0 14 -4 14 -10z"/>
<path d="M4298 1553 c7 -3 16 -2 19 1 4 3 -2 6 -13 5 -11 0 -14 -3 -6 -6z"/>
<path d="M2065 1410 c3 -5 8 -10 11 -10 2 0 4 5 4 10 0 6 -5 10 -11 10 -5 0
-7 -4 -4 -10z"/>
<path d="M2116 1375 c6 -15 175 -108 182 -100 5 5 -164 115 -178 115 -5 0 -7
-7 -4 -15z"/>
<path d="M2058 993 c7 -3 16 -2 19 1 4 3 -2 6 -13 5 -11 0 -14 -3 -6 -6z"/>
<path d="M2098 983 c7 -3 16 -2 19 1 4 3 -2 6 -13 5 -11 0 -14 -3 -6 -6z"/>
<path d="M2260 936 c0 -2 9 -6 20 -9 11 -3 18 -1 14 4 -5 9 -34 13 -34 5z"/>
<path d="M2628 803 c6 -2 18 -2 25 0 6 3 1 5 -13 5 -14 0 -19 -2 -12 -5z"/>
<path d="M2690 786 c0 -2 7 -7 16 -10 8 -3 12 -2 9 4 -6 10 -25 14 -25 6z"/>
<path d="M2860 720 c8 -5 22 -9 30 -9 10 0 8 3 -5 9 -27 12 -43 12 -25 0z"/>
<path d="M10101 1211 c-7 -12 -7 -22 -2 -26 5 -3 13 4 16 16 9 28 -1 36 -14
10z"/>
<path d="M10020 1189 c0 -5 5 -7 10 -4 6 3 10 8 10 11 0 2 -4 4 -10 4 -5 0
-10 -5 -10 -11z"/>
<path d="M9918 1063 c7 -3 16 -2 19 1 4 3 -2 6 -13 5 -11 0 -14 -3 -6 -6z"/>
<path d="M10358 983 c7 -3 16 -2 19 1 4 3 -2 6 -13 5 -11 0 -14 -3 -6 -6z"/>
<path d="M3320 996 c0 -2 7 -6 15 -10 8 -3 15 -1 15 4 0 6 -7 10 -15 10 -8 0
-15 -2 -15 -4z"/>
<path d="M3755 920 c3 -5 8 -10 11 -10 2 0 4 5 4 10 0 6 -5 10 -11 10 -5 0 -7
-4 -4 -10z"/>
<path d="M4068 743 c7 -3 16 -2 19 1 4 3 -2 6 -13 5 -11 0 -14 -3 -6 -6z"/>
<path d="M2260 4785 c-25 -13 -40 -24 -35 -24 6 0 30 11 55 24 25 13 41 24 35
24 -5 0 -30 -11 -55 -24z"/>
<path d="M2070 4790 c0 -5 5 -10 10 -10 6 0 10 5 10 10 0 6 -4 10 -10 10 -5 0
-10 -4 -10 -10z"/>
<path d="M2458 4769 c-41 -21 -49 -30 -20 -23 16 5 73 44 62 43 -3 0 -22 -9
-42 -20z"/>
<path d="M1640 4768 c-14 -6 -37 -10 -52 -10 -17 1 -28 -5 -28 -13 0 -7 -6
-15 -12 -18 -8 -2 -9 -8 -4 -13 5 -5 11 -4 13 4 3 6 12 12 21 12 12 -1 9 -7
-13 -25 -16 -14 -24 -25 -17 -25 7 0 21 7 29 16 9 8 24 13 34 11 10 -3 32 7
51 24 31 26 32 27 8 23 -19 -5 -22 -3 -10 5 21 15 9 20 -20 9z m0 -22 c0 -3
-4 -8 -10 -11 -5 -3 -10 -1 -10 4 0 6 5 11 10 11 6 0 10 -2 10 -4z"/>
<path d="M1708 4763 c7 -3 16 -2 19 1 4 3 -2 6 -13 5 -11 0 -14 -3 -6 -6z"/>
<path d="M1765 4730 c-3 -6 1 -7 9 -4 18 7 21 14 7 14 -6 0 -13 -4 -16 -10z"/>
<path d="M1478 4713 c19 -8 14 -21 -10 -25 -12 -2 -23 -10 -25 -18 -3 -9 -1
-11 4 -5 11 13 56 18 48 5 -3 -6 -14 -10 -23 -10 -15 0 -15 -2 -2 -10 21 -13
53 -13 44 1 -3 6 0 15 7 20 11 7 10 9 -5 9 -11 0 -16 5 -13 14 5 13 -13 27
-31 25 -4 0 -1 -3 6 -6z"/>
<path d="M2118 4713 c7 -3 16 -2 19 1 4 3 -2 6 -13 5 -11 0 -14 -3 -6 -6z"/>
<path d="M2570 4600 c-14 -11 -20 -20 -14 -20 6 0 19 9 29 20 23 25 17 25 -15
0z"/>
<path d="M1340 4550 c-9 -6 -10 -10 -3 -10 6 0 15 5 18 10 8 12 4 12 -15 0z"/>
<path d="M1260 4526 c0 -2 7 -6 15 -10 8 -3 15 -1 15 4 0 6 -7 10 -15 10 -8 0
-15 -2 -15 -4z"/>
<path d="M1315 4517 c-12 -10 -14 -16 -7 -21 13 -8 52 10 52 24 0 14 -23 12
-45 -3z"/>
<path d="M2605 4485 c-25 -12 -26 -14 -5 -9 28 7 60 23 45 23 -5 0 -23 -6 -40
-14z"/>
<path d="M3210 4450 c-13 -9 -13 -10 0 -10 8 0 22 5 30 10 13 9 13 10 0 10 -8
0 -22 -5 -30 -10z"/>
<path d="M589 4243 c-13 -15 -12 -15 9 -4 23 12 28 21 13 21 -5 0 -15 -7 -22
-17z"/>
<path d="M3070 4185 c-16 -9 -19 -14 -9 -15 8 0 24 7 35 15 24 18 7 19 -26 0z"/>
<path d="M410 4075 c-7 -9 -8 -15 -2 -15 5 0 12 7 16 15 3 8 4 15 2 15 -2 0
-9 -7 -16 -15z"/>
<path d="M2883 3883 c-14 -5 -18 -23 -5 -23 5 0 17 7 28 15 14 11 15 14 4 14
-8 0 -21 -3 -27 -6z"/>
<path d="M2990 3880 c-8 -5 -10 -10 -5 -10 6 0 17 5 25 10 8 5 11 10 5 10 -5
0 -17 -5 -25 -10z"/>
<path d="M2985 3840 c-3 -5 -2 -10 4 -10 5 0 13 5 16 10 3 6 2 10 -4 10 -5 0
-13 -4 -16 -10z"/>
<path d="M2833 3808 c-31 -15 -29 -30 2 -16 14 6 25 15 25 20 0 9 1 10 -27 -4z"/>
<path d="M2838 3773 c-19 -5 -25 -23 -9 -23 17 0 41 12 41 21 0 9 -4 10 -32 2z"/>
<path d="M2660 3739 c0 -5 5 -7 10 -4 6 3 10 8 10 11 0 2 -4 4 -10 4 -5 0 -10
-5 -10 -11z"/>
<path d="M2760 3720 c-9 -6 -10 -10 -3 -10 6 0 15 5 18 10 8 12 4 12 -15 0z"/>
<path d="M2660 3650 c-14 -11 -20 -20 -14 -20 6 0 19 9 29 20 23 25 17 25 -15
0z"/>
<path d="M2460 3450 c-8 -5 -12 -11 -9 -14 3 -3 14 1 25 9 21 16 8 20 -16 5z"/>
<path d="M2333 3353 c-19 -7 -16 -19 5 -19 10 0 19 6 19 13 0 14 -4 15 -24 6z"/>
<path d="M6065 3270 c-3 -5 -1 -10 4 -10 6 0 11 5 11 10 0 6 -2 10 -4 10 -3 0
-8 -4 -11 -10z"/>
<path d="M5972 3230 c-29 -13 -41 -24 -36 -32 6 -9 9 -9 12 0 2 7 12 12 21 12
10 0 26 9 36 20 22 24 21 24 -33 0z"/>
<path d="M92 3150 c0 -19 2 -27 5 -17 2 9 2 25 0 35 -3 9 -5 1 -5 -18z"/>
<path d="M91 3084 c0 -11 3 -14 6 -6 3 7 2 16 -1 19 -3 4 -6 -2 -5 -13z"/>
<path d="M92 3035 c0 -16 2 -22 5 -12 2 9 2 23 0 30 -3 6 -5 -1 -5 -18z"/>
<path d="M8852 2891 c-7 -4 -10 -15 -6 -24 7 -20 20 -22 27 -4 7 20 -6 37 -21
28z"/>
<path d="M8873 2585 c0 -27 2 -38 4 -22 2 15 2 37 0 50 -2 12 -4 0 -4 -28z"/>
<path d="M3140 2426 c0 -2 7 -6 15 -10 8 -3 15 -1 15 4 0 6 -7 10 -15 10 -8 0
-15 -2 -15 -4z"/>
<path d="M8851 2403 c0 -6 -4 -20 -7 -30 -5 -14 -4 -15 5 -7 7 7 11 20 8 30
-3 11 -5 14 -6 7z"/>
<path d="M3646 2271 c-14 -22 11 -41 117 -90 62 -29 130 -61 152 -71 52 -25
167 -73 285 -119 52 -21 109 -45 127 -54 38 -20 76 -22 71 -4 -3 6 -45 26 -94
43 -90 31 -338 150 -464 224 -116 68 -182 92 -194 71z"/>
<path d="M12845 2220 c-16 -7 -17 -9 -3 -9 9 -1 20 4 23 9 7 11 7 11 -20 0z"/>
<path d="M249 2070 c32 -50 100 -129 101 -118 0 4 -19 29 -42 56 -24 27 -53
62 -66 78 -13 16 -10 9 7 -16z"/>
<path d="M12088 1959 c-48 -25 -48 -35 1 -34 24 0 37 4 34 11 -2 7 6 19 19 28
21 15 21 16 3 16 -11 -1 -37 -10 -57 -21z"/>
<path d="M12002 1922 c-22 -7 -27 -26 -7 -28 6 0 18 -4 28 -9 23 -10 28 -4 20
23 -6 23 -6 23 -41 14z"/>
<path d="M4500 1891 c8 -5 33 -12 55 -15 l40 -6 -30 15 c-33 16 -91 21 -65 6z"/>
<path d="M8620 1861 c0 -5 -3 -18 -7 -28 -6 -16 -5 -16 10 -4 19 15 23 41 7
41 -5 0 -10 -4 -10 -9z"/>
<path d="M11890 1850 c0 -5 7 -10 15 -10 8 0 15 5 15 10 0 6 -7 10 -15 10 -8
0 -15 -4 -15 -10z"/>
<path d="M12303 1811 c-13 -11 -23 -21 -23 -23 0 -2 18 -3 40 -3 45 0 44 -1
30 26 -13 23 -19 23 -47 0z"/>
<path d="M9 1762 c18 -34 83 -75 195 -122 61 -26 185 -79 276 -118 176 -75
230 -92 270 -82 24 6 24 6 -7 19 -36 15 -64 41 -44 41 33 0 -52 53 -118 74
-42 13 -84 27 -94 31 -13 6 -16 3 -11 -9 10 -25 -31 -20 -111 14 -38 17 -82
30 -98 30 -32 0 -60 13 -101 47 -16 13 -35 22 -44 18 -8 -3 -32 11 -58 35 -47
43 -72 53 -55 22z"/>
<path d="M350 1770 c0 -5 12 -16 28 -24 35 -18 108 -38 96 -26 -16 16 -124 60
-124 50z"/>
<path d="M4885 1770 c3 -5 18 -10 33 -9 24 0 25 1 7 9 -28 12 -47 12 -40 0z"/>
<path d="M12384 1725 c-32 -31 -50 -51 -39 -46 30 16 110 89 104 96 -3 3 -32
-20 -65 -50z"/>
<path d="M11728 1763 c6 -2 18 -2 25 0 6 3 1 5 -13 5 -14 0 -19 -2 -12 -5z"/>
<path d="M4956 1746 c3 -9 25 -21 48 -27 22 -5 57 -14 76 -20 76 -20 70 -6 -8
21 -128 44 -123 43 -116 26z"/>
<path d="M11595 1710 c-3 -5 -2 -10 4 -10 5 0 13 5 16 10 3 6 2 10 -4 10 -5 0
-13 -4 -16 -10z"/>
<path d="M11705 1710 c-19 -8 -19 -9 3 -9 12 -1 22 4 22 9 0 6 -1 10 -2 9 -2
0 -12 -4 -23 -9z"/>
<path d="M8521 1694 c0 -11 3 -14 6 -6 3 7 2 16 -1 19 -3 4 -6 -2 -5 -13z"/>
<path d="M12268 1694 c-18 -9 -28 -11 -28 -4 0 6 -5 8 -10 5 -6 -4 -8 -11 -4
-16 3 -5 0 -16 -6 -24 -25 -30 10 -15 48 20 41 38 41 42 0 19z"/>
<path d="M11633 1693 c9 -2 25 -2 35 0 9 3 1 5 -18 5 -19 0 -27 -2 -17 -5z"/>
<path d="M11570 1659 c-58 -20 -85 -39 -58 -39 23 0 118 41 118 51 0 5 -1 9
-2 8 -2 0 -28 -9 -58 -20z"/>
<path d="M12165 1660 c-18 -19 -17 -20 3 -20 12 0 22 2 22 4 0 2 3 11 6 20 9
22 -9 20 -31 -4z"/>
<path d="M4720 1645 c14 -8 30 -14 35 -14 6 0 -1 6 -15 14 -14 8 -29 14 -35
14 -5 0 1 -6 15 -14z"/>
<path d="M4935 1650 c-17 -28 24 -47 161 -73 71 -13 94 -13 94 4 0 18 -50 40
-126 54 -43 8 -89 17 -100 21 -12 3 -25 1 -29 -6z"/>
<path d="M8547 1643 c-3 -5 -12 -26 -21 -47 -16 -39 -16 -39 4 -21 11 10 20
26 20 35 0 9 5 21 12 28 9 9 9 12 1 12 -7 0 -14 -3 -16 -7z"/>
<path d="M11430 1600 c-8 -5 -12 -11 -9 -14 7 -8 49 5 49 15 0 12 -21 11 -40
-1z"/>
<path d="M730 1585 c0 -8 5 -15 11 -15 5 0 7 6 3 13 -4 6 3 2 15 -10 12 -13
27 -23 34 -23 14 1 -39 50 -54 50 -5 0 -9 -7 -9 -15z"/>
<path d="M5250 1589 c142 -88 230 -124 244 -101 9 15 -39 45 -77 48 -18 1 -49
9 -69 18 -21 9 -42 16 -48 16 -5 0 -10 4 -10 9 0 5 -12 11 -27 14 -20 3 -24 2
-13 -4z"/>
<path d="M8487 1565 c-9 -19 -15 -35 -12 -35 7 0 37 61 33 66 -3 2 -12 -12
-21 -31z"/>
<path d="M11366 1591 c-4 -6 -13 -8 -21 -4 -16 6 -21 -22 -6 -31 14 -9 63 13
59 26 -6 16 -25 21 -32 9z"/>
<path d="M12197 1581 c-3 -14 -1 -18 9 -14 16 6 18 19 5 27 -5 3 -11 -3 -14
-13z"/>
<path d="M10902 1570 c-18 -4 -36 -11 -40 -15 -10 -11 71 5 83 16 10 10 4 10
-43 -1z"/>
<path d="M11525 1547 c-16 -13 -15 -14 13 -9 18 2 29 8 26 13 -7 12 -17 11
-39 -4z"/>
<path d="M5320 1530 c8 -5 20 -10 25 -10 6 0 3 5 -5 10 -8 5 -19 10 -25 10 -5
0 -3 -5 5 -10z"/>
<path d="M10682 1530 c-53 -13 -51 -21 6 -18 29 2 52 8 53 13 0 13 -19 15 -59
5z"/>
<path d="M11427 1510 c-55 -35 -60 -43 -14 -28 40 14 77 37 77 49 0 15 -14 10
-63 -21z"/>
<path d="M12165 1530 c-3 -6 1 -7 9 -4 18 7 21 14 7 14 -6 0 -13 -4 -16 -10z"/>
<path d="M5775 1520 c3 -5 11 -10 16 -10 6 0 7 5 4 10 -3 6 -11 10 -16 10 -6
0 -7 -4 -4 -10z"/>
<path d="M11220 1516 c-9 -12 -6 -16 23 -21 19 -4 43 -5 54 -2 10 3 3 5 -16 6
-25 1 -32 5 -27 16 7 19 -18 20 -34 1z"/>
<path d="M12109 1493 c-13 -15 -12 -15 9 -4 23 12 28 21 13 21 -5 0 -15 -7
-22 -17z"/>
<path d="M5150 1493 c0 -5 11 -16 25 -23 21 -11 27 -11 38 0 9 10 9 11 0 6 -7
-4 -24 1 -38 10 -14 9 -25 12 -25 7z"/>
<path d="M10355 1476 c-50 -16 -64 -24 -52 -29 10 -4 15 -11 12 -17 -4 -6 -11
-8 -16 -4 -6 3 -21 3 -35 0 -19 -5 -24 -12 -22 -28 2 -12 9 -23 17 -26 9 -3
11 0 6 8 -10 17 13 30 54 30 29 0 32 2 21 15 -16 19 -6 31 32 40 21 5 27 3 33
-14 3 -12 11 -21 16 -21 6 0 8 8 4 19 -3 12 0 21 10 25 18 7 20 26 3 25 -7 -1
-44 -11 -83 -23z"/>
<path d="M10484 1479 c0 -18 4 -19 41 -13 41 6 63 19 53 30 -4 3 -16 0 -28 -6
-16 -9 -25 -9 -33 -1 -17 17 -33 13 -33 -10z"/>
<path d="M11095 1481 c-5 -9 24 -31 39 -31 13 0 5 28 -10 34 -20 8 -22 8 -29
-3z"/>
<path d="M5278 1473 c7 -3 16 -2 19 1 4 3 -2 6 -13 5 -11 0 -14 -3 -6 -6z"/>
<path d="M11448 1468 c9 -9 15 -9 24 0 9 9 7 12 -12 12 -19 0 -21 -3 -12 -12z"/>
<path d="M5570 1460 c0 -20 67 -42 154 -50 50 -5 116 -18 146 -30 45 -16 48
-19 20 -15 -167 22 -212 16 -76 -10 91 -18 159 -20 136 -5 -23 15 26 13 53 -2
12 -6 38 -15 57 -19 19 -4 73 -17 120 -29 75 -18 270 -44 277 -36 10 9 -157
53 -185 49 -19 -3 -49 1 -70 11 -54 23 -125 37 -132 25 -8 -13 -67 8 -74 27
-3 8 -15 14 -27 14 -35 0 -183 40 -209 58 -28 18 -190 28 -190 12z"/>
<path d="M10998 1463 c7 -3 16 -2 19 1 4 3 -2 6 -13 5 -11 0 -14 -3 -6 -6z"/>
<path d="M11045 1460 c-3 -5 1 -10 9 -10 9 0 16 5 16 10 0 6 -4 10 -9 10 -6 0
-13 -4 -16 -10z"/>
<path d="M12064 1454 c-18 -14 -18 -15 4 -4 12 6 22 13 22 15 0 8 -5 6 -26
-11z"/>
<path d="M830 1441 c19 -9 37 -16 40 -13 9 7 -34 32 -54 32 -16 -1 -13 -5 14
-19z"/>
<path d="M10755 1450 c8 -13 35 -13 55 0 11 7 5 10 -23 10 -23 0 -36 -4 -32
-10z"/>
<path d="M10243 1443 c9 -2 23 -2 30 0 6 3 -1 5 -18 5 -16 0 -22 -2 -12 -5z"/>
<path d="M9870 1430 c0 -5 5 -10 11 -10 5 0 7 5 4 10 -3 6 -8 10 -11 10 -2 0
-4 -4 -4 -10z"/>
<path d="M9660 1420 c0 -5 9 -10 21 -10 11 0 17 5 14 10 -3 6 -13 10 -21 10
-8 0 -14 -4 -14 -10z"/>
<path d="M10632 1419 c-18 -5 -31 -13 -28 -17 2 -4 -22 -7 -54 -8 -68 -1 -110
-11 -110 -25 0 -22 45 -25 119 -7 42 10 88 15 103 12 25 -5 27 -3 25 25 -2 33
-5 34 -55 20z"/>
<path d="M10804 1404 c3 -9 6 -18 6 -20 0 -2 9 -4 20 -4 23 0 26 10 8 28 -18
18 -41 15 -34 -4z"/>
<path d="M11273 1409 c-23 -8 -32 -39 -13 -39 6 0 10 5 10 11 0 6 6 9 14 6 8
-3 17 1 20 8 7 19 -4 24 -31 14z"/>
<path d="M11100 1399 c0 -7 -8 -18 -17 -25 -16 -12 -13 -12 15 -3 26 9 30 14
21 25 -14 17 -19 18 -19 3z"/>
<path d="M9466 1393 c-14 -15 -4 -25 19 -19 14 4 25 2 25 -4 0 -5 -22 -10 -49
-10 -48 0 -74 -13 -48 -23 14 -5 81 6 132 22 24 7 26 9 8 10 -12 1 -23 5 -25
9 -4 12 -53 23 -62 15z"/>
<path d="M10320 1390 c0 -13 20 -13 40 0 12 8 9 10 -12 10 -16 0 -28 -4 -28
-10z"/>
<path d="M9350 1380 c0 -5 9 -10 20 -10 11 0 20 5 20 10 0 6 -9 10 -20 10 -11
0 -20 -4 -20 -10z"/>
<path d="M10070 1375 c0 -17 8 -18 62 -9 50 9 38 24 -18 24 -32 0 -44 -4 -44
-15z"/>
<path d="M10982 1362 c-10 -10 -24 -16 -31 -14 -7 2 -18 -4 -25 -13 -12 -17
-14 -17 -34 0 -11 10 -19 22 -16 27 3 4 -4 8 -16 8 -20 0 -20 -2 -6 -21 8 -12
12 -28 9 -36 -5 -13 2 -14 48 -8 30 4 57 13 62 20 4 8 23 19 43 25 27 9 33 15
23 21 -21 13 -37 11 -57 -9z"/>
<path d="M10285 1360 c-3 -5 -1 -10 4 -10 6 0 11 5 11 10 0 6 -2 10 -4 10 -3
0 -8 -4 -11 -10z"/>
<path d="M6350 1350 c0 -5 12 -10 28 -10 21 0 24 2 12 10 -20 13 -40 13 -40 0z"/>
<path d="M9232 1348 c5 -15 37 -18 41 -3 1 6 -9 12 -22 13 -16 3 -22 -1 -19
-10z"/>
<path d="M10705 1321 c-49 -16 -101 -33 -115 -39 -22 -9 -22 -11 -5 -11 11 -1
38 -4 60 -8 36 -6 39 -5 27 9 -11 14 -3 19 68 43 75 25 96 36 68 34 -7 0 -53
-13 -103 -28z"/>
<path d="M9053 1326 c2 -6 16 -12 31 -14 20 -3 27 0 24 10 -3 7 -17 13 -32 14
-15 1 -25 -4 -23 -10z"/>
<path d="M10105 1329 c-4 -6 -4 -13 -1 -16 8 -8 36 5 36 17 0 13 -27 13 -35
-1z"/>
<path d="M9010 1310 c-9 -6 -10 -10 -3 -10 6 0 15 5 18 10 8 12 4 12 -15 0z"/>
<path d="M9218 1303 c7 -3 16 -2 19 1 4 3 -2 6 -13 5 -11 0 -14 -3 -6 -6z"/>
<path d="M8815 1284 l-30 -14 40 5 c22 3 59 5 83 5 23 0 42 5 42 10 0 15 -101
11 -135 -6z"/>
<path d="M9088 1283 c7 -3 16 -2 19 1 4 3 -2 6 -13 5 -11 0 -14 -3 -6 -6z"/>
<path d="M7040 1270 c-11 -7 -6 -10 20 -10 26 0 31 3 20 10 -8 5 -17 10 -20
10 -3 0 -12 -5 -20 -10z"/>
<path d="M7170 1270 c0 -5 16 -10 35 -10 19 0 35 5 35 10 0 6 -16 10 -35 10
-19 0 -35 -4 -35 -10z"/>
<path d="M9038 1273 c7 -3 16 -2 19 1 4 3 -2 6 -13 5 -11 0 -14 -3 -6 -6z"/>
<path d="M8670 1266 c0 -2 7 -7 16 -10 8 -3 12 -2 9 4 -6 10 -25 14 -25 6z"/>
<path d="M6790 1240 c14 -4 32 -8 40 -9 13 -1 13 0 0 9 -8 5 -26 9 -40 9 l-25
-1 25 -8z"/>
<path d="M7054 1225 c-18 -13 -16 -14 23 -15 23 0 48 -3 57 -6 9 -3 16 -1 16
5 0 6 -11 11 -25 11 -14 0 -25 5 -25 10 0 15 -23 12 -46 -5z"/>
<path d="M7656 1232 c-15 -15 -2 -22 41 -22 25 0 44 3 40 6 -9 9 -75 22 -81
16z"/>
<path d="M7778 1233 c6 -2 18 -2 25 0 6 3 1 5 -13 5 -14 0 -19 -2 -12 -5z"/>
<path d="M7306 1220 c-19 -6 -19 -7 -1 -13 20 -8 29 -4 24 11 -2 5 -13 6 -23
2z"/>
<path d="M7498 1213 c12 -2 32 -2 45 0 12 2 2 4 -23 4 -25 0 -35 -2 -22 -4z"/>
<path d="M7350 1200 c0 -5 8 -10 18 -10 9 0 27 -3 40 -6 16 -5 22 -2 22 10 0
12 -10 16 -40 16 -22 0 -40 -4 -40 -10z"/>
<path d="M375 1150 c3 -5 8 -10 11 -10 2 0 4 5 4 10 0 6 -5 10 -11 10 -5 0 -7
-4 -4 -10z"/>
<path d="M11490 1148 c0 -4 4 -8 9 -8 6 0 12 4 15 8 3 5 -1 9 -9 9 -8 0 -15
-4 -15 -9z"/>
<path d="M11503 1120 c-43 -23 -85 -48 -93 -57 -14 -15 155 70 175 88 18 17
-5 8 -82 -31z"/>
<path d="M500 1135 c0 -8 4 -15 9 -15 5 0 14 7 21 15 10 13 9 15 -9 15 -12 0
-21 -6 -21 -15z"/>
<path d="M552 1079 c2 -7 10 -15 17 -17 8 -3 12 1 9 9 -2 7 -10 15 -17 17 -8
3 -12 -1 -9 -9z"/>
<path d="M610 1084 c0 -3 14 -10 31 -16 20 -7 27 -13 19 -18 -9 -6 -8 -11 6
-18 32 -16 175 -59 238 -71 33 -6 62 -14 65 -19 3 -4 35 -15 71 -25 166 -46
194 -55 198 -65 2 -6 10 -8 18 -5 8 3 14 0 14 -5 0 -7 15 -6 41 3 50 18 49 18
73 0 16 -12 17 -17 6 -30 -11 -13 -7 -17 23 -30 20 -8 80 -20 134 -26 54 -6
120 -20 147 -30 51 -19 69 -18 48 3 -15 15 -16 53 -2 78 9 16 4 20 -41 29 -27
6 -61 11 -73 11 -13 0 -27 7 -30 16 -5 13 -15 15 -45 11 l-39 -5 16 39 c14 36
14 41 -3 59 -13 14 -31 20 -59 20 -38 -1 -39 -2 -22 -15 11 -9 16 -20 12 -31
-5 -14 -13 -15 -49 -8 -23 5 -72 9 -109 9 -47 0 -72 5 -85 17 -13 12 -34 16
-81 15 -45 -1 -65 2 -72 12 -7 12 -11 12 -24 2 -23 -19 -66 13 -66 50 0 27 -3
29 -39 29 -23 0 -41 5 -44 13 -3 9 -9 7 -24 -5 -24 -22 -77 -23 -158 -3 -64
15 -95 18 -95 9z"/>
<path d="M1050 1086 c0 -2 7 -7 16 -10 8 -3 12 -2 9 4 -6 10 -25 14 -25 6z"/>
<path d="M1176 1051 c-10 -11 -13 -22 -8 -25 5 -3 17 3 26 13 10 11 13 22 8
25 -5 3 -17 -3 -26 -13z"/>
<path d="M1404 994 c-18 -14 -18 -15 4 -4 12 6 22 13 22 15 0 8 -5 6 -26 -11z"/>
<path d="M11271 988 c-25 -12 -40 -23 -34 -25 5 -2 30 8 54 22 54 30 41 32
-20 3z"/>
<path d="M1574 949 c-7 -12 -5 -15 23 -23 30 -10 37 9 8 22 -16 8 -26 8 -31 1z"/>
<path d="M11056 895 c-11 -8 -16 -15 -10 -15 5 0 18 7 28 15 11 8 16 15 10 15
-5 0 -18 -7 -28 -15z"/>
<path d="M1755 890 c3 -5 14 -10 23 -10 15 0 15 2 2 10 -20 13 -33 13 -25 0z"/>
<path d="M1846 841 c7 -34 -6 -44 -40 -31 -15 5 -28 5 -31 0 -3 -5 4 -11 15
-15 11 -4 18 -10 15 -15 -3 -4 16 -10 43 -12 42 -3 51 1 80 29 l32 31 -55 21
c-31 12 -58 21 -60 21 -3 0 -2 -13 1 -29z"/>
<path d="M10757 863 c-10 -10 -8 -33 2 -33 6 0 9 9 8 20 -1 23 -1 22 -10 13z"/>
<path d="M10890 830 c-8 -5 -10 -10 -5 -10 6 0 17 5 25 10 8 5 11 10 5 10 -5
0 -17 -5 -25 -10z"/>
<path d="M1977 824 c-4 -4 -7 -11 -7 -15 0 -9 90 -29 133 -29 l32 0 -31 19
c-35 21 -115 37 -127 25z"/>
<path d="M10840 810 c-8 -5 -10 -10 -5 -10 6 0 17 5 25 10 8 5 11 10 5 10 -5
0 -17 -5 -25 -10z"/>
<path d="M10760 775 c-14 -8 -19 -14 -10 -14 8 0 24 6 34 14 25 19 9 19 -24 0z"/>
<path d="M10560 770 c-13 -9 -13 -10 0 -10 8 0 22 5 30 10 13 9 13 10 0 10 -8
0 -22 -5 -30 -10z"/>
<path d="M10433 760 c-13 -5 -23 -11 -23 -14 0 -7 40 6 46 15 6 10 6 10 -23
-1z"/>
<path d="M10635 720 c-3 -6 1 -7 9 -4 18 7 21 14 7 14 -6 0 -13 -4 -16 -10z"/>
<path d="M10475 675 c-55 -18 -94 -33 -88 -34 16 -1 203 58 203 64 0 8 -9 5
-115 -30z"/>
<path d="M1993 682 c-31 -5 -29 -20 3 -32 32 -13 168 -12 139 0 -11 5 -35 9
-54 9 -19 1 -42 7 -50 14 -9 7 -26 11 -38 9z"/>
<path d="M9925 610 c-3 -5 -1 -10 4 -10 6 0 11 5 11 10 0 6 -2 10 -4 10 -3 0
-8 -4 -11 -10z"/>
<path d="M10278 613 c7 -3 16 -2 19 1 4 3 -2 6 -13 5 -11 0 -14 -3 -6 -6z"/>
<path d="M10185 590 c-13 -5 -14 -9 -5 -9 8 0 24 4 35 9 13 5 14 9 5 9 -8 0
-24 -4 -35 -9z"/>
<path d="M2430 570 c0 -5 5 -10 10 -10 6 0 10 5 10 10 0 6 -4 10 -10 10 -5 0
-10 -4 -10 -10z"/>
<path d="M10030 550 c-202 -53 -321 -88 -328 -95 -4 -4 2 -5 13 -2 11 3 83 22
160 41 147 37 301 84 275 84 -8 0 -62 -12 -120 -28z"/>
<path d="M3055 561 c-2 -5 8 -11 23 -14 35 -7 38 -3 7 11 -13 6 -27 7 -30 3z"/>
<path d="M9685 550 c-8 -13 5 -13 25 0 13 8 13 10 -2 10 -9 0 -20 -4 -23 -10z"/>
<path d="M9628 538 c9 -9 15 -9 24 0 9 9 7 12 -12 12 -19 0 -21 -3 -12 -12z"/>
<path d="M1035 491 c-10 -17 12 -21 25 -6 10 12 10 15 -3 15 -9 0 -18 -4 -22
-9z"/>
<path d="M1110 469 c0 -5 5 -7 10 -4 6 3 10 8 10 11 0 2 -4 4 -10 4 -5 0 -10
-5 -10 -11z"/>
<path d="M1162 468 c-18 -18 -14 -28 12 -28 28 0 42 26 20 34 -20 8 -18 8 -32
-6z"/>
<path d="M2678 473 c7 -3 16 -2 19 1 4 3 -2 6 -13 5 -11 0 -14 -3 -6 -6z"/>
<path d="M3819 434 c18 -8 47 -17 65 -20 19 -3 11 2 -24 15 -62 24 -92 27 -41
5z"/>
<path d="M3926 427 c11 -30 411 -89 605 -89 166 0 187 1 169 11 -19 11 -137
31 -170 30 -71 -3 -184 8 -188 19 -5 15 -42 16 -42 2 0 -10 -47 -8 -153 6 -25
3 -36 1 -32 -6 3 -5 -1 -10 -9 -10 -9 0 -16 4 -16 9 0 9 -37 18 -137 35 -23 4
-31 2 -27 -7z"/>
<path d="M9330 390 c-261 -41 -290 -47 -247 -49 56 -2 502 70 516 84 8 9 -30
4 -269 -35z"/>
<path d="M1666 402 c-9 -15 9 -27 56 -39 72 -19 72 -19 75 -3 6 24 -118 63
-131 42z"/>
<path d="M3550 380 c8 -5 20 -10 25 -10 6 0 3 5 -5 10 -8 5 -19 10 -25 10 -5
0 -3 -5 5 -10z"/>
<path d="M4140 330 c0 -6 7 -10 15 -10 8 0 15 2 15 4 0 2 -7 6 -15 10 -8 3
-15 1 -15 -4z"/>
<path d="M9018 333 c6 -2 18 -2 25 0 6 3 1 5 -13 5 -14 0 -19 -2 -12 -5z"/>
<path d="M5430 320 c0 -5 5 -10 11 -10 5 0 7 5 4 10 -3 6 -8 10 -11 10 -2 0
-4 -4 -4 -10z"/>
<path d="M5480 322 c8 -5 33 -13 55 -16 30 -6 37 -5 29 4 -6 6 -31 14 -55 16
-30 4 -39 2 -29 -4z"/>
<path d="M8955 320 c-3 -6 1 -7 9 -4 18 7 21 14 7 14 -6 0 -13 -4 -16 -10z"/>
<path d="M8255 310 c-8 -12 42 -12 70 0 16 7 11 9 -22 9 -23 1 -45 -3 -48 -9z"/>
<path d="M4240 300 c38 -12 119 -12 100 0 -8 5 -40 9 -70 9 -42 -1 -49 -3 -30
-9z"/>
<path d="M4395 290 c11 -5 34 -8 50 -8 l30 0 -30 8 c-16 4 -39 8 -50 8 l-20 1
20 -9z"/>
<path d="M4668 293 c6 -2 18 -2 25 0 6 3 1 5 -13 5 -14 0 -19 -2 -12 -5z"/>
<path d="M6411 276 c11 -9 130 -15 124 -6 -3 6 -34 10 -67 10 -34 0 -59 -2
-57 -4z"/>
<path d="M6830 270 c18 -12 70 -12 125 -1 33 7 25 9 -50 10 -61 0 -85 -2 -75
-9z"/>
<path d="M4538 263 c12 -2 30 -2 40 0 9 3 -1 5 -23 4 -22 0 -30 -2 -17 -4z"/>
<path d="M7680 260 c0 -6 7 -10 15 -10 8 0 15 2 15 4 0 2 -7 6 -15 10 -8 3
-15 1 -15 -4z"/>
<path d="M5286 251 c9 -9 53 -15 84 -11 26 3 -22 19 -59 19 -22 1 -31 -3 -25
-8z"/>
<path d="M7480 250 c0 -5 5 -10 10 -10 6 0 10 5 10 10 0 6 -4 10 -10 10 -5 0
-10 -4 -10 -10z"/>
<path d="M5138 233 c6 -2 18 -2 25 0 6 3 1 5 -13 5 -14 0 -19 -2 -12 -5z"/>
<path d="M7748 233 c7 -3 16 -2 19 1 4 3 -2 6 -13 5 -11 0 -14 -3 -6 -6z"/>
</g>
</svg>
