<?xml version="1.0" standalone="no"?>
<!DOCTYPE svg PUBLIC "-//W3C//DTD SVG 20010904//EN"
 "http://www.w3.org/TR/2001/REC-SVG-20010904/DTD/svg10.dtd">
<svg version="1.0" xmlns="http://www.w3.org/2000/svg"
 width="164.000000pt" height="89.000000pt" viewBox="0 0 164.000000 89.000000"
 preserveAspectRatio="xMidYMid meet">

<g transform="translate(0.000000,89.000000) scale(0.100000,-0.100000)"
fill="#000000" stroke="none">
<path d="M1146 819 c-72 -11 -171 -56 -246 -111 -30 -23 -107 -91 -171 -152
-182 -174 -209 -199 -216 -193 -3 4 -29 -6 -57 -21 -66 -34 -173 -38 -223 -8
-94 57 -110 183 -34 270 32 36 93 59 163 60 56 1 68 4 68 17 0 36 -109 34
-182 -2 -37 -19 -37 -19 -48 1 -16 31 -37 24 -88 -27 -74 -75 -97 -130 -97
-238 0 -107 22 -163 95 -235 65 -66 127 -93 225 -98 101 -5 172 9 264 53 105
51 153 86 286 215 204 197 297 245 399 206 73 -28 136 -114 136 -187 0 -11 12
-19 35 -23 26 -5 40 -16 58 -47 l24 -40 18 43 c29 68 29 68 29 163 1 77 -3 98
-26 147 -51 110 -156 188 -279 208 -35 5 -66 9 -69 9 -3 -1 -32 -5 -64 -10z
m211 -175 c-3 -3 -12 -4 -19 -1 -8 3 -5 6 6 6 11 1 17 -2 13 -5z m-847 -289
c0 -7 -103 -75 -114 -75 -5 0 18 18 50 40 61 42 64 43 64 35z m-283 -101 c-3
-3 -12 -4 -19 -1 -8 3 -5 6 6 6 11 1 17 -2 13 -5z m90 0 c-3 -3 -12 -4 -19 -1
-8 3 -5 6 6 6 11 1 17 -2 13 -5z"/>
<path d="M1400 282 c0 -7 -16 -29 -35 -50 -30 -34 -70 -58 -127 -76 -10 -3
-18 -11 -18 -17 0 -17 49 -2 95 29 42 30 103 107 92 119 -4 3 -7 1 -7 -5z"/>
</g>
</svg>
